<svg width="24" height="24" viewBox="0 0 24 24" fill="none" xmlns="http://www.w3.org/2000/svg">
<circle cx="12" cy="12" r="12" fill="#FFA800"/>
<path fill-rule="evenodd" clip-rule="evenodd" d="M16.1166 10.6445C15.9908 11.5133 15.5369 12.039 14.755 12.2214C15.2679 12.4867 15.6163 12.8275 15.8002 13.2439C15.984 13.6602 15.9656 14.1847 15.7448 14.8175C15.6304 15.1403 15.4826 15.4128 15.3016 15.635C15.1205 15.8573 14.919 16.0275 14.6969 16.1457C14.4748 16.2638 14.2151 16.3442 13.9177 16.3869C13.6204 16.4296 13.3174 16.44 13.0088 16.418C12.7003 16.3961 12.3526 16.3472 11.9659 16.2714L11.5251 18.0538L10.4487 17.7876L10.8825 16.0332C10.5097 15.941 10.226 15.8683 10.0315 15.8153L9.59589 17.5767L8.51944 17.3105L8.96022 15.5281C8.87634 15.5074 8.75081 15.4751 8.58363 15.4313C8.41645 15.3875 8.28859 15.3546 8.20005 15.3327L6.80207 14.987L7.33507 13.7614L8.11095 13.9533C8.34395 14.0109 8.50847 13.9255 8.60452 13.6971L9.29939 10.8871L9.41123 10.9148C9.38443 10.9032 9.34772 10.8917 9.30112 10.8801L9.79721 8.87404C9.81499 8.54218 9.64681 8.33247 9.29265 8.24489L8.51677 8.05302L8.80025 6.90667L10.2804 7.28011C10.5786 7.35386 10.8052 7.40742 10.9601 7.44079L11.3957 5.67933L12.4722 5.94553L12.0452 7.67204C12.4296 7.75721 12.715 7.82284 12.9014 7.86894L13.3249 6.15641L14.4014 6.4226L13.9658 8.18406C14.3259 8.30772 14.6391 8.44081 14.9055 8.58333C15.1719 8.72585 15.4092 8.89581 15.6176 9.0932C15.8259 9.29059 15.9732 9.51986 16.0594 9.78101C16.1456 10.0422 16.1647 10.33 16.1166 10.6445ZM13.6717 14.0823C13.7132 13.9146 13.7151 13.7568 13.6775 13.609C13.6399 13.4613 13.5802 13.3328 13.4984 13.2235C13.4166 13.1143 13.3002 13.0101 13.1492 12.911C12.9982 12.8118 12.8562 12.731 12.7233 12.6684C12.5905 12.6059 12.4232 12.5423 12.2216 12.4776C12.0201 12.4129 11.861 12.3662 11.7445 12.3374C11.628 12.3086 11.4772 12.2737 11.2919 12.2329C11.1067 12.192 10.9955 12.167 10.9582 12.1578L10.374 14.5203C10.4112 14.5296 10.4972 14.552 10.6317 14.5878C10.7663 14.6235 10.8778 14.6524 10.9664 14.6743C11.0549 14.6962 11.1793 14.7232 11.3394 14.7554C11.4996 14.7876 11.6382 14.812 11.7553 14.8285C11.8723 14.8451 12.01 14.8582 12.1684 14.8677C12.3267 14.8771 12.4641 14.8765 12.5805 14.8657C12.6969 14.855 12.8197 14.8334 12.9488 14.801C13.078 14.7687 13.1873 14.7216 13.2768 14.6596C13.3663 14.5977 13.4464 14.5186 13.5172 14.4224C13.588 14.3261 13.6395 14.2128 13.6717 14.0823ZM14.012 10.2019C14.0408 10.3351 14.0363 10.4786 13.9982 10.6324C13.966 10.7629 13.9156 10.8765 13.8472 10.9733C13.7787 11.0701 13.6936 11.1443 13.5919 11.1958C13.4902 11.2472 13.3884 11.2888 13.2866 11.3205C13.1848 11.3522 13.0611 11.3674 12.9156 11.366C12.7701 11.3646 12.6437 11.3606 12.5366 11.3539C12.4295 11.3472 12.2982 11.3283 12.1427 11.2973C11.9872 11.2662 11.8695 11.2421 11.7897 11.2248C11.7099 11.2076 11.6016 11.1808 11.4647 11.1444C11.3278 11.1081 11.2477 11.0871 11.2244 11.0813L11.7551 8.9354C11.7877 8.94347 11.88 8.96507 12.032 9.00019C12.184 9.03531 12.3104 9.06409 12.4112 9.08654C12.512 9.10898 12.6457 9.14823 12.8123 9.20427C12.9789 9.26031 13.1176 9.31438 13.2283 9.36649C13.3391 9.4186 13.4577 9.48873 13.5843 9.57689C13.7108 9.66505 13.8065 9.75795 13.8714 9.85558C13.9363 9.95321 13.9831 10.0686 14.012 10.2019Z" fill="white"/>
</svg>
