<svg width="24" height="24" viewBox="0 0 24 24" fill="none" xmlns="http://www.w3.org/2000/svg">
<circle cx="12" cy="12" r="12" fill="white"/>
<path d="M4.99616 11.13L9.62737 4.45996L11.9583 7.83914L9.59439 11.2195H5.04327C5.03294 11.2193 5.02284 11.2163 5.01404 11.2109C5.00524 11.2055 4.99806 11.1978 4.99324 11.1887C4.98843 11.1795 4.98616 11.1693 4.98667 11.1589C4.98719 11.1486 4.99046 11.1386 4.99616 11.13Z" fill="#7E49FC"/>
<path d="M18.9192 11.13L14.288 4.45996L11.9583 7.83914L14.321 11.2195H18.8721C18.8824 11.2193 18.8925 11.2163 18.9013 11.2109C18.9101 11.2055 18.9173 11.1978 18.9221 11.1887C18.9269 11.1795 18.9292 11.1693 18.9287 11.1589C18.9282 11.1486 18.9249 11.1386 18.9192 11.13Z" fill="#7E49FC"/>
<path d="M18.9994 12.0935C19.0114 13.0259 18.8382 13.9514 18.4897 14.8163C18.1413 15.6812 17.6245 16.4682 16.9694 17.1318C16.3144 17.7954 15.534 18.3223 14.6737 18.682C13.8134 19.0416 12.8902 19.2268 11.9577 19.2268C11.0253 19.2268 10.1021 19.0416 9.24178 18.682C8.38146 18.3223 7.60112 17.7954 6.94605 17.1318C6.29098 16.4682 5.77421 15.6812 5.42575 14.8163C5.07729 13.9514 4.90406 13.0259 4.91612 12.0935H9.39185C9.38453 12.4347 9.44543 12.774 9.57098 13.0915C9.69652 13.4089 9.88418 13.6981 10.1229 13.942C10.3617 14.1859 10.6468 14.3798 10.9615 14.5121C11.2761 14.6444 11.614 14.7126 11.9554 14.7126C12.2967 14.7126 12.6346 14.6444 12.9493 14.5121C13.264 14.3798 13.549 14.1859 13.7878 13.942C14.0266 13.6981 14.2142 13.4089 14.3398 13.0915C14.4653 12.774 14.5262 12.4347 14.5189 12.0935H18.9994Z" fill="#0066FF"/>
</svg>
