<svg width="24" height="24" viewBox="0 0 24 24" fill="none" xmlns="http://www.w3.org/2000/svg">
<path d="M12.2177 15.049C12.5023 15.049 12.7729 14.9898 13.0194 14.8838C13.0284 14.88 13.0378 14.8781 13.0462 14.8781C13.0998 14.8781 13.135 14.9478 13.0918 14.9936C12.8706 15.2262 12.5611 15.3714 12.2177 15.3714C11.8744 15.3714 11.5644 15.2262 11.3437 14.9936C11.2934 14.9406 11.3493 14.8551 11.416 14.8838C11.6626 14.9898 11.9331 15.049 12.2177 15.049Z" fill="#FFC412"/>
<path fill-rule="evenodd" clip-rule="evenodd" d="M10.7458 2.30662L10.751 2.30424C11.2338 2.10125 11.7462 2 12.2586 2C12.7729 2 13.2872 2.10221 13.7714 2.30662C14.7835 2.73313 15.5754 3.56798 15.9586 4.61155L19.3204 14.1178C19.3359 14.1618 19.35 14.2071 19.3599 14.253C19.4087 14.4765 19.435 14.7091 19.435 14.9479C19.435 15.8792 19.0208 16.6945 18.4281 17.3078C18.4116 17.3245 18.3961 17.3417 18.3811 17.3593C18.2783 17.4811 18.182 17.5819 18.074 17.6865L14.3876 21.1334C13.9959 21.5136 13.5131 21.782 12.9866 21.9119C12.5104 22.0294 12.0135 22.0294 11.5372 21.9119C11.0112 21.782 10.5279 21.5136 10.1362 21.1334L6.44984 17.6865C6.42542 17.6631 6.40194 17.6392 6.37893 17.6153C6.3329 17.5671 6.28358 17.5227 6.23098 17.4816C5.48281 16.898 5 15.9805 5 14.9474C5 14.4956 5.09252 14.0662 5.25925 13.6765L8.55158 4.61728C8.93529 3.57037 9.72996 2.73313 10.7458 2.30662ZM10.3988 18.8351C10.2527 18.9555 10.2527 19.1819 10.3988 19.3022C10.8957 19.7116 11.5283 19.957 12.2173 19.957C12.9063 19.957 13.5389 19.7116 14.0358 19.3022C14.1819 19.1819 14.1819 18.9555 14.0358 18.8351C13.5389 18.4258 12.9067 18.1803 12.2173 18.1803C11.5278 18.1803 10.8957 18.4258 10.3988 18.8351ZM7.62588 16.5813L9.43783 18.4239C9.52096 18.508 9.63086 18.5519 9.7417 18.5519C9.83375 18.5519 9.92628 18.5214 10.0024 18.4583C10.628 17.9425 11.402 17.6626 12.2182 17.6626C13.0345 17.6626 13.8085 17.943 14.4341 18.4583C14.6013 18.5963 14.8455 18.5787 14.9977 18.4239L16.8096 16.5813C16.9815 16.4065 16.9773 16.1176 16.7946 15.9537C15.5284 14.8194 13.9203 14.2 12.2178 14.2C10.5152 14.2 8.90711 14.8194 7.64091 15.9537C7.45821 16.1171 7.45351 16.406 7.62588 16.5813ZM14.9967 9.25293C14.8446 9.09771 14.6003 9.08003 14.4331 9.21806C13.8076 9.7334 13.0336 10.0138 12.2168 10.0133C11.4005 10.0133 10.6265 9.7334 10.001 9.21806C9.83375 9.08051 9.58953 9.09818 9.43736 9.25293L7.62541 11.0955C7.45304 11.2703 7.45774 11.5593 7.64044 11.7231C8.90664 12.8574 10.5148 13.4769 12.2173 13.4769C13.9198 13.4769 15.5284 12.8574 16.7941 11.7231C16.9768 11.5598 16.9815 11.2708 16.8092 11.0955L14.9967 9.25293Z" fill="#FFC412"/>
<path d="M12.2177 15.049C12.5023 15.049 12.7729 14.9898 13.0194 14.8838C13.0284 14.88 13.0378 14.8781 13.0462 14.8781C13.0998 14.8781 13.135 14.9478 13.0918 14.9936C12.8706 15.2262 12.5611 15.3714 12.2177 15.3714C11.8744 15.3714 11.5644 15.2262 11.3437 14.9936C11.2934 14.9406 11.3493 14.8551 11.416 14.8838C11.6626 14.9898 11.9331 15.049 12.2177 15.049Z" fill="#FFC412"/>
<path fill-rule="evenodd" clip-rule="evenodd" d="M10.7458 2.30662L10.751 2.30424C11.2338 2.10125 11.7462 2 12.2586 2C12.7729 2 13.2872 2.10221 13.7714 2.30662C14.7835 2.73313 15.5754 3.56798 15.9586 4.61155L19.3204 14.1178C19.3359 14.1618 19.35 14.2071 19.3599 14.253C19.4087 14.4765 19.435 14.7091 19.435 14.9479C19.435 15.8792 19.0208 16.6945 18.4281 17.3078C18.4116 17.3245 18.3961 17.3417 18.3811 17.3593C18.2783 17.4811 18.182 17.5819 18.074 17.6865L14.3876 21.1334C13.9959 21.5136 13.5131 21.782 12.9866 21.9119C12.5104 22.0294 12.0135 22.0294 11.5372 21.9119C11.0112 21.782 10.5279 21.5136 10.1362 21.1334L6.44984 17.6865C6.42542 17.6631 6.40194 17.6392 6.37893 17.6153C6.3329 17.5671 6.28358 17.5227 6.23098 17.4816C5.48281 16.898 5 15.9805 5 14.9474C5 14.4956 5.09252 14.0662 5.25925 13.6765L8.55158 4.61728C8.93529 3.57037 9.72996 2.73313 10.7458 2.30662ZM10.3988 18.8351C10.2527 18.9555 10.2527 19.1819 10.3988 19.3022C10.8957 19.7116 11.5283 19.957 12.2173 19.957C12.9063 19.957 13.5389 19.7116 14.0358 19.3022C14.1819 19.1819 14.1819 18.9555 14.0358 18.8351C13.5389 18.4258 12.9067 18.1803 12.2173 18.1803C11.5278 18.1803 10.8957 18.4258 10.3988 18.8351ZM7.62588 16.5813L9.43783 18.4239C9.52096 18.508 9.63086 18.5519 9.7417 18.5519C9.83375 18.5519 9.92628 18.5214 10.0024 18.4583C10.628 17.9425 11.402 17.6626 12.2182 17.6626C13.0345 17.6626 13.8085 17.943 14.4341 18.4583C14.6013 18.5963 14.8455 18.5787 14.9977 18.4239L16.8096 16.5813C16.9815 16.4065 16.9773 16.1176 16.7946 15.9537C15.5284 14.8194 13.9203 14.2 12.2178 14.2C10.5152 14.2 8.90711 14.8194 7.64091 15.9537C7.45821 16.1171 7.45351 16.406 7.62588 16.5813ZM14.9967 9.25293C14.8446 9.09771 14.6003 9.08003 14.4331 9.21806C13.8076 9.7334 13.0336 10.0138 12.2168 10.0133C11.4005 10.0133 10.6265 9.7334 10.001 9.21806C9.83375 9.08051 9.58953 9.09818 9.43736 9.25293L7.62541 11.0955C7.45304 11.2703 7.45774 11.5593 7.64044 11.7231C8.90664 12.8574 10.5148 13.4769 12.2173 13.4769C13.9198 13.4769 15.5284 12.8574 16.7941 11.7231C16.9768 11.5598 16.9815 11.2708 16.8092 11.0955L14.9967 9.25293Z" fill="#FFC412"/>
</svg>
