<svg width="24" height="24" viewBox="0 0 24 24" fill="none" xmlns="http://www.w3.org/2000/svg">
<path d="M9.70078 8.50078C9.70078 8.11418 9.38738 7.80078 9.00078 7.80078C8.61418 7.80078 8.30078 8.11418 8.30078 8.50078V11.5008C8.30078 11.7434 8.4264 11.9687 8.63277 12.0962C8.83914 12.2238 9.09684 12.2354 9.31383 12.1269L12.0008 10.7834L14.6877 12.1269C14.9047 12.2354 15.1624 12.2238 15.3688 12.0962C15.5752 11.9687 15.7008 11.7434 15.7008 11.5008V8.50078C15.7008 8.11418 15.3874 7.80078 15.0008 7.80078C14.6142 7.80078 14.3008 8.11418 14.3008 8.50078V10.3682L12.3138 9.37468C12.1168 9.27615 11.8848 9.27615 11.6877 9.37468L9.70078 10.3682V8.50078Z" fill="#FFC412"/>
<path fill-rule="evenodd" clip-rule="evenodd" d="M3.30078 10.0008C3.30078 5.19588 7.19588 1.30078 12.0008 1.30078C16.8057 1.30078 20.7008 5.19588 20.7008 10.0008C20.7008 13.5465 18.58 16.5953 15.5398 17.9506L15.2355 21.6024C15.1837 22.2243 14.6637 22.7028 14.0396 22.7028H9.95976C9.33556 22.7028 8.81576 22.2243 8.76393 21.6024L8.4595 17.9496C5.42054 16.5937 3.30078 13.5456 3.30078 10.0008ZM12.0008 2.70078C7.96908 2.70078 4.70078 5.96908 4.70078 10.0008C4.70078 13.0607 6.58368 15.6825 9.25645 16.7676H14.7451C17.4179 15.6825 19.3008 13.0607 19.3008 10.0008C19.3008 5.96908 16.0325 2.70078 12.0008 2.70078ZM9.88252 18.1676H14.1169L13.8556 21.3028H10.1438L9.88252 18.1676Z" fill="#FFC412"/>
</svg>
