<svg width="24" height="24" viewBox="0 0 24 24" fill="none" xmlns="http://www.w3.org/2000/svg">
<path d="M6 9.25C6 8.83579 6.33579 8.5 6.75 8.5H17.25C17.6642 8.5 18 8.83579 18 9.25C18 9.66421 17.6642 10 17.25 10H6.75C6.33579 10 6 9.66421 6 9.25Z" fill="white"/>
<path d="M6.75 12C6.33579 12 6 12.3358 6 12.75C6 13.1642 6.33579 13.5 6.75 13.5H11.25C11.6642 13.5 12 13.1642 12 12.75C12 12.3358 11.6642 12 11.25 12H6.75Z" fill="white"/>
<path fill-rule="evenodd" clip-rule="evenodd" d="M2 6C2 4.89543 2.89543 4 4 4H20C21.1046 4 22 4.89543 22 6V16C22 17.1046 21.1046 18 20 18H13.0711L11.182 19.8891C10.4009 20.6701 9.1346 20.6701 8.35355 19.8891L6.46447 18H4C2.89543 18 2 17.1046 2 16V6ZM7.08579 16.5L9.41421 18.8284C9.60948 19.0237 9.92606 19.0237 10.1213 18.8284L12.4497 16.5H20C20.2761 16.5 20.5 16.2761 20.5 16V6C20.5 5.72386 20.2761 5.5 20 5.5H4C3.72386 5.5 3.5 5.72386 3.5 6V16C3.5 16.2761 3.72386 16.5 4 16.5H7.08579Z" fill="white"/>
</svg>
