<svg width="24" height="24" viewBox="0 0 24 24" fill="none" xmlns="http://www.w3.org/2000/svg">
<path fill-rule="evenodd" clip-rule="evenodd" d="M12 24C18.6274 24 24 18.6274 24 12C24 5.37258 18.6274 0 12 0C5.37258 0 0 5.37258 0 12C0 18.6274 5.37258 24 12 24ZM14.1449 6.15028C15.2169 6.33539 16.2421 6.65859 17.1981 7.09726C17.2064 7.10083 17.2135 7.10679 17.2176 7.11512C18.9116 9.60668 19.7482 12.4173 19.4354 15.6528C19.4342 15.6665 19.4271 15.679 19.4159 15.6874C18.1329 16.6296 16.8901 17.2016 15.6644 17.5807C15.6449 17.5867 15.6236 17.5795 15.6118 17.5629C15.3286 17.1688 15.0714 16.7534 14.8462 16.3171C14.8331 16.2915 14.845 16.2606 14.8716 16.2504C15.2801 16.0963 15.6686 15.9117 16.0422 15.6933C16.0718 15.6761 16.0736 15.6338 16.0464 15.6135C15.9672 15.5546 15.8885 15.4927 15.8134 15.4308C15.7992 15.4195 15.7803 15.4171 15.7643 15.4249C13.3385 16.5457 10.6808 16.5457 8.22596 15.4249C8.20999 15.4177 8.19106 15.4201 8.17747 15.4314C8.10239 15.4933 8.02373 15.5546 7.9451 15.6135C7.91791 15.6338 7.92027 15.6761 7.94983 15.6933C8.3235 15.9076 8.71196 16.0963 9.11992 16.251C9.14651 16.2611 9.15894 16.2915 9.14592 16.3171C8.9254 16.754 8.6682 17.1694 8.37968 17.5635C8.36725 17.5795 8.34657 17.5867 8.32705 17.5807C7.10732 17.2016 5.86451 16.6296 4.5815 15.6874C4.57086 15.679 4.56317 15.6659 4.56199 15.6522C4.30066 12.8536 4.83337 10.0197 6.77799 7.11452C6.7827 7.10679 6.7898 7.10083 6.79808 7.09726C7.75473 6.658 8.77994 6.3348 9.85128 6.15028C9.8708 6.14731 9.8903 6.15623 9.90036 6.17349C10.0328 6.408 10.1842 6.70859 10.2865 6.9544C11.4157 6.7818 12.5628 6.7818 13.7157 6.9544C13.818 6.71394 13.964 6.408 14.0959 6.17349C14.1059 6.15564 14.1254 6.14671 14.1449 6.15028ZM8.16446 12.4363C8.16446 13.2696 8.77344 13.9481 9.51251 13.9481C10.2634 13.9481 10.8605 13.2696 10.8605 12.4363C10.8724 11.609 10.2693 10.9245 9.51251 10.9245C8.76163 10.9245 8.16446 11.603 8.16446 12.4363ZM13.1487 12.4363C13.1487 13.2696 13.7577 13.9481 14.4967 13.9481C15.2535 13.9481 15.8448 13.2696 15.8448 12.4363C15.8566 11.609 15.2535 10.9245 14.4967 10.9245C13.7458 10.9245 13.1487 11.603 13.1487 12.4363Z" fill="white" fill-opacity="0.3"/>
</svg>
