<svg width="24" height="24" viewBox="0 0 24 24" fill="none" xmlns="http://www.w3.org/2000/svg">
<circle cx="12" cy="12" r="12" fill="url(#paint0_linear_398_138)"/>
<circle cx="12" cy="12" r="11.5" stroke="white" stroke-opacity="0.3"/>
<g filter="url(#filter0_d_398_138)">
<path d="M11.7742 14.4392C12.0019 14.4392 12.2183 14.3919 12.4156 14.307C12.4227 14.304 12.4302 14.3024 12.437 14.3024C12.4798 14.3024 12.508 14.3582 12.4734 14.3949C12.2965 14.581 12.0488 14.6971 11.7742 14.6971C11.4995 14.6971 11.2515 14.581 11.075 14.3949C11.0348 14.3525 11.0795 14.2841 11.1328 14.307C11.3301 14.3919 11.5465 14.4392 11.7742 14.4392Z" fill="white"/>
<path fill-rule="evenodd" clip-rule="evenodd" d="M10.5967 4.2453L10.6008 4.24339C10.9871 4.081 11.397 4 11.8069 4C12.2183 4 12.6297 4.08177 13.0171 4.2453C13.8268 4.5865 14.4603 5.25438 14.7669 6.08924L17.4564 13.6943C17.4688 13.7294 17.48 13.7657 17.4879 13.8024C17.527 13.9812 17.548 14.1673 17.548 14.3583C17.548 15.1034 17.2166 15.7556 16.7425 16.2462C16.7293 16.2596 16.7169 16.2733 16.7049 16.2875C16.6226 16.3849 16.5456 16.4655 16.4592 16.5492L13.5101 19.3067C13.1967 19.6108 12.8105 19.8256 12.3893 19.9295C12.0083 20.0235 11.6108 20.0235 11.2298 19.9295C10.809 19.8256 10.4223 19.6108 10.109 19.3067L7.15988 16.5492C7.14034 16.5305 7.12155 16.5114 7.10314 16.4923C7.06632 16.4537 7.02687 16.4181 6.98479 16.3853C6.38625 15.9184 6 15.1844 6 14.3579C6 13.9965 6.07402 13.653 6.2074 13.3412L8.84126 6.09383C9.14823 5.2563 9.78397 4.5865 10.5967 4.2453ZM10.319 17.4681C10.2022 17.5644 10.2022 17.7455 10.319 17.8418C10.7165 18.1692 11.2226 18.3656 11.7738 18.3656C12.325 18.3656 12.8311 18.1692 13.2287 17.8418C13.3455 17.7455 13.3455 17.5644 13.2287 17.4681C12.8311 17.1407 12.3254 16.9443 11.7738 16.9443C11.2223 16.9443 10.7165 17.1407 10.319 17.4681ZM8.1007 15.6651L9.55026 17.1391C9.61677 17.2064 9.70469 17.2415 9.79336 17.2415C9.867 17.2415 9.94102 17.2171 10.0019 17.1666C10.5024 16.754 11.1216 16.5301 11.7746 16.5301C12.4276 16.5301 13.0468 16.7544 13.5473 17.1666C13.681 17.2771 13.8764 17.2629 13.9981 17.1391L15.4477 15.6651C15.5852 15.5252 15.5818 15.2941 15.4357 15.163C14.4227 14.2555 13.1362 13.76 11.7742 13.76C10.4122 13.76 9.12569 14.2555 8.11272 15.163C7.96657 15.2937 7.96281 15.5248 8.1007 15.6651ZM13.9974 9.80234C13.8757 9.67816 13.6803 9.66403 13.5465 9.77445C13.046 10.1867 12.4268 10.411 11.7735 10.4106C11.1204 10.4106 10.5012 10.1867 10.0008 9.77445C9.867 9.66441 9.67162 9.67855 9.54989 9.80234L8.10033 11.2764C7.96243 11.4163 7.96619 11.6474 8.11235 11.7785C9.12531 12.6859 10.4118 13.1815 11.7738 13.1815C13.1358 13.1815 14.4227 12.6859 15.4353 11.7785C15.5815 11.6478 15.5852 11.4167 15.4473 11.2764L13.9974 9.80234Z" fill="white"/>
</g>
<defs>
<filter id="filter0_d_398_138" x="5" y="3" width="15.548" height="20" filterUnits="userSpaceOnUse" color-interpolation-filters="sRGB">
<feFlood flood-opacity="0" result="BackgroundImageFix"/>
<feColorMatrix in="SourceAlpha" type="matrix" values="0 0 0 0 0 0 0 0 0 0 0 0 0 0 0 0 0 0 127 0" result="hardAlpha"/>
<feOffset dx="1" dy="1"/>
<feGaussianBlur stdDeviation="1"/>
<feComposite in2="hardAlpha" operator="out"/>
<feColorMatrix type="matrix" values="0 0 0 0 0.841667 0 0 0 0 0.549889 0 0 0 0 0.112222 0 0 0 0.2 0"/>
<feBlend mode="darken" in2="BackgroundImageFix" result="effect1_dropShadow_398_138"/>
<feBlend mode="normal" in="SourceGraphic" in2="effect1_dropShadow_398_138" result="shape"/>
</filter>
<linearGradient id="paint0_linear_398_138" x1="0" y1="0" x2="24" y2="24" gradientUnits="userSpaceOnUse">
<stop stop-color="#F3CF17"/>
<stop offset="0.99927" stop-color="#ED930C"/>
</linearGradient>
</defs>
</svg>
