<svg width="24" height="24" viewBox="0 0 24 24" fill="none" xmlns="http://www.w3.org/2000/svg">
<path fill-rule="evenodd" clip-rule="evenodd" d="M9 4.25C9 3.83579 9.33579 3.5 9.75 3.5H14.25C14.6642 3.5 15 3.83579 15 4.25C15 4.66421 14.6642 5 14.25 5H9.75C9.33579 5 9 4.66421 9 4.25ZM4 6.75C4 6.33579 4.33579 6 4.75 6H10.75H13.75H19.25C19.6642 6 20 6.33579 20 6.75C20 7.16421 19.6642 7.5 19.25 7.5H17.75V19C17.75 19.9665 16.9665 20.75 16 20.75H8C7.0335 20.75 6.25 19.9665 6.25 19V7.5H4.75C4.33579 7.5 4 7.16421 4 6.75ZM13 7.5H11.5V19.25H13V7.5ZM14.5 19.25V7.5H16.25V19C16.25 19.1381 16.1381 19.25 16 19.25L14.5 19.25ZM7.75 7.5H10V19.25L8 19.25C7.86193 19.25 7.75 19.1381 7.75 19V7.5Z" fill="white"/>
</svg>
