<svg width="24" height="24" viewBox="0 0 24 24" fill="none" xmlns="http://www.w3.org/2000/svg">
<path d="M4 4.75C3.58579 4.75 3.25 5.08579 3.25 5.5C3.25 5.91421 3.58579 6.25 4 6.25H20C20.4142 6.25 20.75 5.91421 20.75 5.5C20.75 5.08579 20.4142 4.75 20 4.75H4Z" fill="white"/>
<path d="M4 11.25C3.58579 11.25 3.25 11.5858 3.25 12C3.25 12.4142 3.58579 12.75 4 12.75H19.1894L17.6413 14.2981C17.3484 14.591 17.3484 15.0659 17.6413 15.3588C17.9342 15.6517 18.4091 15.6517 18.702 15.3588L21.5304 12.5303C21.6184 12.4423 21.6799 12.3379 21.715 12.227C21.7278 12.1866 21.7373 12.1447 21.7432 12.1017C21.7523 12.0342 21.7523 11.9658 21.7432 11.8983C21.7375 11.8564 21.7283 11.8156 21.716 11.7762C21.6811 11.6641 21.6192 11.5585 21.5304 11.4697L18.702 8.64122C18.4091 8.34833 17.9342 8.34832 17.6413 8.64121C17.3484 8.9341 17.3484 9.40898 17.6413 9.70187L19.1894 11.25H4Z" fill="white"/>
<path d="M3.25 18.5C3.25 18.0858 3.58579 17.75 4 17.75H20C20.4142 17.75 20.75 18.0858 20.75 18.5C20.75 18.9142 20.4142 19.25 20 19.25H4C3.58579 19.25 3.25 18.9142 3.25 18.5Z" fill="white"/>
</svg>
