<svg width="24" height="24" viewBox="0 0 24 24" fill="none" xmlns="http://www.w3.org/2000/svg">
<path d="M4.75 4C4.75 3.58579 4.41421 3.25 4 3.25C3.58579 3.25 3.25 3.58579 3.25 4V20C3.25 20.4142 3.58579 20.75 4 20.75H20C20.4142 20.75 20.75 20.4142 20.75 20C20.75 19.5858 20.4142 19.25 20 19.25H4.75V4Z" fill="white"/>
<path d="M6.81282 14.2981C6.51992 14.591 6.51992 15.0659 6.81282 15.3588C7.10571 15.6517 7.58058 15.6517 7.87348 15.3588L11.5858 11.6465L13.8839 13.9445C14.1768 14.2374 14.6517 14.2374 14.9445 13.9445L19.1872 9.70191C19.4801 9.40901 19.4801 8.93414 19.1872 8.64125C18.8943 8.34835 18.4194 8.34835 18.1265 8.64125L14.4142 12.3536L12.1161 10.0555C11.8232 9.76257 11.3483 9.76257 11.0555 10.0555L6.81282 14.2981Z" fill="white"/>
</svg>
