<svg width="24" height="24" viewBox="0 0 24 24" fill="none" xmlns="http://www.w3.org/2000/svg">
<path d="M8.25 9.31245C8.25 7.24139 9.92894 5.56245 12 5.56245C14.0711 5.56245 15.75 7.24139 15.75 9.31245C15.75 11.1267 14.4617 12.64 12.75 12.9874V14.3125C12.75 14.7267 12.4142 15.0625 12 15.0625C11.5858 15.0625 11.25 14.7267 11.25 14.3125V12.3125C11.25 11.8982 11.5858 11.5625 12 11.5625C13.2426 11.5625 14.25 10.5551 14.25 9.31245C14.25 8.06982 13.2426 7.06245 12 7.06245C10.7574 7.06245 9.75 8.06982 9.75 9.31245C9.75 9.72667 9.41421 10.0625 9 10.0625C8.58579 10.0625 8.25 9.72667 8.25 9.31245Z" fill="white"/>
<path d="M13.25 17.5625C13.25 18.2528 12.6903 18.8125 12 18.8125C11.3097 18.8125 10.75 18.2528 10.75 17.5625C10.75 16.8721 11.3097 16.3125 12 16.3125C12.6903 16.3125 13.25 16.8721 13.25 17.5625Z" fill="white"/>
<path fill-rule="evenodd" clip-rule="evenodd" d="M2.25 4.5C2.25 3.25736 3.25736 2.25 4.5 2.25H19.5C20.7427 2.25 21.75 3.25737 21.75 4.5V19.5C21.75 20.7427 20.7427 21.75 19.5 21.75H4.5C3.25737 21.75 2.25 20.7427 2.25 19.5V4.5ZM4.5 3.75C4.08579 3.75 3.75 4.08579 3.75 4.5V19.5C3.75 19.9142 4.08578 20.25 4.5 20.25H19.5C19.9142 20.25 20.25 19.9142 20.25 19.5V4.5C20.25 4.08578 19.9142 3.75 19.5 3.75H4.5Z" fill="white"/>
</svg>
