<svg width="24" height="24" viewBox="0 0 24 24" fill="none" xmlns="http://www.w3.org/2000/svg">
<path fill-rule="evenodd" clip-rule="evenodd" d="M8.14692 8.79389V6.501C8.14692 6.05555 7.60835 5.83247 7.29337 6.14745L4.00048 9.44034C3.68549 9.75532 3.90858 10.2939 4.35403 10.2939H7.64692C7.64758 10.2939 7.64824 10.2939 7.6489 10.2939H19.3969C19.8112 10.2939 20.1469 9.95811 20.1469 9.54389C20.1469 9.12968 19.8112 8.79389 19.3969 8.79389H8.14692Z" fill="white"/>
<path fill-rule="evenodd" clip-rule="evenodd" d="M15.8531 15.2061L15.8531 17.499C15.8531 17.9444 16.3916 18.1675 16.7066 17.8526L19.9995 14.5597C20.3145 14.2447 20.0914 13.7061 19.646 13.7061L16.3531 13.7061C16.3524 13.7061 16.3518 13.7061 16.3511 13.7061L4.60306 13.7061C4.18885 13.7061 3.85306 14.0419 3.85306 14.4561C3.85306 14.8703 4.18884 15.2061 4.60306 15.2061L15.8531 15.2061Z" fill="white"/>
</svg>
