<svg width="24" height="24" viewBox="0 0 24 24" fill="none" xmlns="http://www.w3.org/2000/svg">
<path d="M20.6479 2.67438L13.1526 8.24123L14.5386 4.95686L20.6479 2.67438Z" fill="#E2761B" stroke="#E2761B" stroke-width="1.41176" stroke-linecap="round" stroke-linejoin="round"/>
<path d="M3.34476 2.67438L10.7798 8.29396L9.46152 4.95686L3.34476 2.67438Z" fill="#E4761B" stroke="#E4761B" stroke-width="1.41176" stroke-linecap="round" stroke-linejoin="round"/>
<path d="M17.9504 15.5784L15.9541 18.6368L20.2253 19.812L21.4532 15.6462L17.9504 15.5784Z" fill="#E4761B" stroke="#E4761B" stroke-width="1.41176" stroke-linecap="round" stroke-linejoin="round"/>
<path d="M2.55341 15.6462L3.77374 19.8119L8.04493 18.6368L6.0487 15.5784L2.55341 15.6462Z" fill="#E4761B" stroke="#E4761B" stroke-width="1.41176" stroke-linecap="round" stroke-linejoin="round"/>
<path d="M7.80381 10.4107L6.6136 12.2111L10.8547 12.3994L10.704 7.842L7.80381 10.4107Z" fill="#E4761B" stroke="#E4761B" stroke-width="1.41176" stroke-linecap="round" stroke-linejoin="round"/>
<path d="M16.1884 10.4107L13.2506 7.78926L13.1527 12.3994L17.3862 12.2111L16.1884 10.4107Z" fill="#E4761B" stroke="#E4761B" stroke-width="1.41176" stroke-linecap="round" stroke-linejoin="round"/>
<path d="M8.04466 18.6368L10.5908 17.3938L8.39118 15.6763L8.04466 18.6368Z" fill="#E4761B" stroke="#E4761B" stroke-width="1.41176" stroke-linecap="round" stroke-linejoin="round"/>
<path d="M13.4008 17.3938L15.9545 18.6368L15.6005 15.6763L13.4008 17.3938Z" fill="#E4761B" stroke="#E4761B" stroke-width="1.41176" stroke-linecap="round" stroke-linejoin="round"/>
<path d="M15.9546 18.6363L13.4009 17.3934L13.6043 19.0582L13.5817 19.7588L15.9546 18.6363Z" fill="#D7C1B3" stroke="#D7C1B3" stroke-width="1.41176" stroke-linecap="round" stroke-linejoin="round"/>
<path d="M8.04472 18.6363L10.4176 19.7588L10.4025 19.0582L10.5909 17.3934L8.04472 18.6363Z" fill="#D7C1B3" stroke="#D7C1B3" stroke-width="1.41176" stroke-linecap="round" stroke-linejoin="round"/>
<path d="M10.4556 14.5764L8.33134 13.9511L9.8304 13.2656L10.4556 14.5764Z" fill="#233447" stroke="#233447" stroke-width="1.41176" stroke-linecap="round" stroke-linejoin="round"/>
<path d="M13.5372 14.5764L14.1625 13.2656L15.6691 13.9511L13.5372 14.5764Z" fill="#233447" stroke="#233447" stroke-width="1.41176" stroke-linecap="round" stroke-linejoin="round"/>
<path d="M8.04439 18.6368L8.40597 15.5784L6.04816 15.6462L8.04439 18.6368Z" fill="#CD6116" stroke="#CD6116" stroke-width="1.41176" stroke-linecap="round" stroke-linejoin="round"/>
<path d="M15.5927 15.5784L15.9543 18.6367L17.9506 15.6462L15.5927 15.5784Z" fill="#CD6116" stroke="#CD6116" stroke-width="1.41176" stroke-linecap="round" stroke-linejoin="round"/>
<path d="M17.386 12.2109L13.1525 12.3993L13.5442 14.5763L14.1694 13.2656L15.676 13.9511L17.386 12.2109Z" fill="#CD6116" stroke="#CD6116" stroke-width="1.41176" stroke-linecap="round" stroke-linejoin="round"/>
<path d="M8.33093 13.9511L9.83753 13.2656L10.4552 14.5763L10.8545 12.3993L6.61342 12.2109L8.33093 13.9511Z" fill="#CD6116" stroke="#CD6116" stroke-width="1.41176" stroke-linecap="round" stroke-linejoin="round"/>
<path d="M6.61374 12.2109L8.39152 15.6761L8.33125 13.9511L6.61374 12.2109Z" fill="#E4751F" stroke="#E4751F" stroke-width="1.41176" stroke-linecap="round" stroke-linejoin="round"/>
<path d="M15.6753 13.9511L15.5999 15.6761L17.3853 12.2109L15.6753 13.9511Z" fill="#E4751F" stroke="#E4751F" stroke-width="1.41176" stroke-linecap="round" stroke-linejoin="round"/>
<path d="M10.8554 12.3991L10.4561 14.5761L10.9533 17.1449L11.0663 13.7626L10.8554 12.3991Z" fill="#E4751F" stroke="#E4751F" stroke-width="1.41176" stroke-linecap="round" stroke-linejoin="round"/>
<path d="M13.1522 12.3991L12.9488 13.7551L13.0392 17.1449L13.5439 14.5761L13.1522 12.3991Z" fill="#E4751F" stroke="#E4751F" stroke-width="1.41176" stroke-linecap="round" stroke-linejoin="round"/>
<path d="M13.5442 14.5761L13.0395 17.1448L13.4011 17.3934L15.6007 15.6759L15.6761 13.9509L13.5442 14.5761Z" fill="#F6851B" stroke="#F6851B" stroke-width="1.41176" stroke-linecap="round" stroke-linejoin="round"/>
<path d="M8.33134 13.9508L8.39161 15.6759L10.5912 17.3934L10.9528 17.1448L10.4556 14.5761L8.33134 13.9508Z" fill="#F6851B" stroke="#F6851B" stroke-width="1.41176" stroke-linecap="round" stroke-linejoin="round"/>
<path d="M13.5813 19.759L13.6039 19.0584L13.4156 18.8927H10.5756L10.4024 19.0584L10.4175 19.759L8.04457 18.6366L8.8732 19.3146L10.553 20.4822H13.4382L15.1255 19.3146L15.9542 18.6366L13.5813 19.759Z" fill="#C0AD9E" stroke="#C0AD9E" stroke-width="1.41176" stroke-linecap="round" stroke-linejoin="round"/>
<path d="M13.4016 17.3935L13.04 17.145H10.9534L10.5918 17.3935L10.4035 19.0583L10.5767 18.8926H13.4167L13.605 19.0583L13.4016 17.3935Z" fill="#161616" stroke="#161616" stroke-width="1.41176" stroke-linecap="round" stroke-linejoin="round"/>
<path d="M20.9641 8.60273L21.6044 5.52928L20.6477 2.67429L13.401 8.05282L16.1882 10.4106L20.1279 11.5632L21.0017 10.5462L20.6251 10.275L21.2277 9.72514L20.7607 9.36355L21.3633 8.90404L20.9641 8.60273Z" fill="#763D16" stroke="#763D16" stroke-width="1.41176" stroke-linecap="round" stroke-linejoin="round"/>
<path d="M2.39499 5.52928L3.03529 8.60273L2.62851 8.90404L3.23115 9.36355L2.77164 9.72514L3.37427 10.275L2.99763 10.5462L3.86392 11.5632L7.80365 10.4106L10.5908 8.05282L3.34414 2.67429L2.39499 5.52928Z" fill="#763D16" stroke="#763D16" stroke-width="1.41176" stroke-linecap="round" stroke-linejoin="round"/>
<path d="M20.1284 11.5633L16.1887 10.4107L17.3864 12.2111L15.6011 15.6763L17.9514 15.6461H21.4542L20.1284 11.5633Z" fill="#F6851B" stroke="#F6851B" stroke-width="1.41176" stroke-linecap="round" stroke-linejoin="round"/>
<path d="M7.80378 10.4107L3.86405 11.5633L2.55331 15.6461H6.04861L8.39135 15.6763L6.61358 12.2111L7.80378 10.4107Z" fill="#F6851B" stroke="#F6851B" stroke-width="1.41176" stroke-linecap="round" stroke-linejoin="round"/>
<path d="M13.153 12.3996L13.4016 8.05307L14.5466 4.95703H9.46185L10.5918 8.05307L10.8555 12.3996L10.9458 13.7706L10.9534 17.1453H13.04L13.0551 13.7706L13.153 12.3996Z" fill="#F6851B" stroke="#F6851B" stroke-width="1.41176" stroke-linecap="round" stroke-linejoin="round"/>
</svg>
