<svg width="24" height="24" viewBox="0 0 24 24" fill="none" xmlns="http://www.w3.org/2000/svg">
<path fill-rule="evenodd" clip-rule="evenodd" d="M1.99998 2.25C1.58576 2.25 1.24998 2.58579 1.24998 3V18C1.24998 18.4142 1.58576 18.75 1.99998 18.75H8.99998C9.59671 18.75 10.169 18.9871 10.591 19.409C11.0129 19.831 11.25 20.4033 11.25 21C11.25 21.2589 11.3811 21.4871 11.5806 21.6219C11.7003 21.7028 11.8446 21.75 12 21.75C12 21.75 12 21.75 12 21.75C12.0517 21.75 12.1023 21.7447 12.1511 21.7348C12.2565 21.7132 12.3538 21.6696 12.438 21.6089C12.627 21.4727 12.75 21.2507 12.75 21C12.75 20.4033 12.9871 19.831 13.409 19.409C13.831 18.9871 14.4033 18.75 15 18.75H22C22.4142 18.75 22.75 18.4142 22.75 18V3C22.75 2.58579 22.4142 2.25 22 2.25H16C14.7402 2.25 13.532 2.75044 12.6412 3.64124C12.3975 3.88497 12.183 4.15245 12 4.43825C11.817 4.15245 11.6025 3.88497 11.3587 3.64124C10.4679 2.75044 9.25976 2.25 7.99998 2.25H1.99998ZM11.25 7V18C10.6047 17.516 9.81604 17.25 8.99998 17.25H2.74998V3.75H7.99998C8.86193 3.75 9.68858 4.09241 10.2981 4.7019C10.9076 5.3114 11.25 6.13805 11.25 7ZM15 17.25C14.1839 17.25 13.3953 17.516 12.75 18V7C12.75 6.13805 13.0924 5.3114 13.7019 4.7019C14.3114 4.09241 15.138 3.75 16 3.75H21.25V17.25H15Z" fill="white"/>
</svg>
