<svg width="24" height="24" viewBox="0 0 24 24" fill="none" xmlns="http://www.w3.org/2000/svg">
<g clip-path="url(#clip0_86_157)">
<path fill-rule="evenodd" clip-rule="evenodd" d="M19.3969 4.72811C16.3703 1.70155 11.4633 1.70155 8.43673 4.72811C5.58887 7.57597 5.42072 12.0888 7.93227 15.1333C7.9235 15.1412 7.91487 15.1495 7.9064 15.1579L2.6031 20.4612C2.31021 20.7541 2.31021 21.229 2.6031 21.5219C2.89599 21.8148 3.37087 21.8148 3.66376 21.5219L8.96706 16.2186C8.97553 16.2101 8.98376 16.2015 8.99174 16.1927C12.0362 18.7043 16.549 18.5361 19.3969 15.6883C22.4234 12.6617 22.4234 7.75467 19.3969 4.72811ZM9.49739 5.78877C11.9382 3.34799 15.8954 3.34799 18.3362 5.78877C20.777 8.22955 20.777 12.1868 18.3362 14.6276C15.8954 17.0684 11.9382 17.0684 9.49739 14.6276C7.05662 12.1868 7.05662 8.22955 9.49739 5.78877Z" fill="white"/>
</g>
<defs>
<clipPath id="clip0_86_157">
<rect width="24" height="24" fill="white"/>
</clipPath>
</defs>
</svg>
