<svg width="24" height="24" viewBox="0 0 24 24" fill="none" xmlns="http://www.w3.org/2000/svg">
<path d="M3.22488 5.9749C3.22488 5.56069 3.56067 5.2249 3.97488 5.2249H19.9749C20.3891 5.2249 20.7249 5.56069 20.7249 5.9749C20.7249 6.38911 20.3891 6.7249 19.9749 6.7249H3.97488C3.56067 6.7249 3.22488 6.38911 3.22488 5.9749Z" fill="white"/>
<path d="M3.22488 11.9749C3.22488 11.5607 3.56067 11.2249 3.97488 11.2249H19.9749C20.3891 11.2249 20.7249 11.5607 20.7249 11.9749C20.7249 12.3891 20.3891 12.7249 19.9749 12.7249H3.97488C3.56067 12.7249 3.22488 12.3891 3.22488 11.9749Z" fill="white"/>
<path d="M3.97488 17.2249C3.56067 17.2249 3.22488 17.5607 3.22488 17.9749C3.22488 18.3891 3.56067 18.7249 3.97488 18.7249H19.9749C20.3891 18.7249 20.7249 18.3891 20.7249 17.9749C20.7249 17.5607 20.3891 17.2249 19.9749 17.2249H3.97488Z" fill="white"/>
</svg>
