<svg width="24" height="24" viewBox="0 0 24 24" fill="none" xmlns="http://www.w3.org/2000/svg">
<path d="M12 24C18.6274 24 24 18.6274 24 12C24 5.37258 18.6274 0 12 0C5.37258 0 0 5.37258 0 12C0 18.6274 5.37258 24 12 24Z" fill="#2775CA"/>
<path d="M9.75 20.3437C9.75 20.625 9.525 20.7844 9.2625 20.7C5.625 19.5375 3 16.1437 3 12.1219C3 8.10936 5.625 4.70623 9.2625 3.54373C9.53437 3.45936 9.75 3.61873 9.75 3.89998V4.60311C9.75 4.79061 9.60937 5.00623 9.43125 5.07186C6.55312 6.13123 4.5 8.89686 4.5 12.1219C4.5 15.3562 6.55312 18.1125 9.43125 19.1625C9.60937 19.2281 9.75 19.4437 9.75 19.6312V20.3437Z" fill="white"/>
<path d="M12.75 17.7468C12.75 17.9531 12.5812 18.1218 12.375 18.1218H11.625C11.4187 18.1218 11.25 17.9531 11.25 17.7468V16.5656C9.60935 16.3406 8.81248 15.4312 8.59685 14.175C8.55935 13.9593 8.7281 13.7718 8.94373 13.7718H9.79685C9.97498 13.7718 10.125 13.9031 10.1625 14.0718C10.3219 14.8125 10.7531 15.3843 12.0656 15.3843C13.0312 15.3843 13.725 14.8406 13.725 14.0343C13.725 13.2281 13.3219 12.9187 11.8969 12.6843C9.79685 12.4031 8.8031 11.7656 8.8031 10.125C8.8031 8.85933 9.76873 7.86558 11.25 7.65933V6.49683C11.25 6.29058 11.4187 6.12183 11.625 6.12183H12.375C12.5812 6.12183 12.75 6.29058 12.75 6.49683V7.68745C13.9594 7.90308 14.7281 8.58745 14.9812 9.7312C15.0281 9.94683 14.8594 10.1437 14.6344 10.1437H13.8469C13.6781 10.1437 13.5375 10.0312 13.4906 9.87183C13.275 9.14995 12.7594 8.8312 11.8594 8.8312C10.8656 8.8312 10.35 9.30933 10.35 9.98433C10.35 10.6968 10.6406 11.0531 12.1687 11.2687C14.2312 11.55 15.3 12.1406 15.3 13.8937C15.3 15.225 14.3062 16.3031 12.7594 16.5468V17.7468H12.75Z" fill="white"/>
<path d="M14.7375 20.7C14.4656 20.7844 14.25 20.625 14.25 20.3438V19.6406C14.25 19.4344 14.3719 19.2375 14.5687 19.1719C17.4375 18.1219 19.5 15.3562 19.5 12.1312C19.5 8.89687 17.4469 6.14062 14.5687 5.09062C14.3906 5.025 14.25 4.80937 14.25 4.62187V3.91875C14.25 3.6375 14.475 3.47812 14.7375 3.5625C18.375 4.70625 21 8.10937 21 12.1219C21 16.1437 18.375 19.5375 14.7375 20.7Z" fill="white"/>
</svg>
