<svg width="24" height="24" viewBox="0 0 24 24" fill="none" xmlns="http://www.w3.org/2000/svg">
<g clip-path="url(#clip0_74_308)">
<circle cx="12" cy="12" r="12" fill="white"/>
<path d="M19.5694 5.03671L18.9105 5.69569C20.4829 7.41525 21.3549 9.66101 21.3549 11.9911C21.3549 14.3212 20.4829 16.567 18.9105 18.2866L19.5694 18.9455C21.3181 17.0487 22.289 14.5633 22.289 11.9834C22.289 9.40355 21.3181 6.91813 19.5694 5.02133V5.03671Z" fill="#5A5564"/>
<path d="M5.71122 5.09394C7.43078 3.52151 9.67655 2.64951 12.0067 2.64951C14.3368 2.64951 16.5825 3.52151 18.3021 5.09394L18.9611 4.43496C17.0643 2.68625 14.5789 1.71539 11.999 1.71539C9.41908 1.71539 6.93367 2.68625 5.03687 4.43496L5.71122 5.09394Z" fill="#5A5564"/>
<path d="M5.09389 18.2933C3.52332 16.5741 2.65247 14.3297 2.65247 12.0011C2.65247 9.67253 3.52332 7.42814 5.09389 5.70896L4.43491 5.04998C2.6862 6.94678 1.71533 9.4322 1.71533 12.0121C1.71533 14.592 2.6862 17.0774 4.43491 18.9742L5.09389 18.2933Z" fill="#5A5564"/>
<path d="M18.2933 18.9019C16.5738 20.4743 14.328 21.3463 11.9979 21.3463C9.66776 21.3463 7.422 20.4743 5.70244 18.9019L5.04346 19.5608C6.94026 21.3095 9.42567 22.2804 12.0056 22.2804C14.5855 22.2804 17.0709 21.3095 18.9677 19.5608L18.2933 18.9019Z" fill="#5A5564"/>
<path d="M16.1603 9.80121C16.0285 8.42614 14.8423 7.96486 13.3421 7.82427V5.93081H12.1823V7.78913C11.8769 7.78913 11.565 7.78913 11.2553 7.78913V5.93081H10.1043V7.83745H7.75172V9.07853C7.75172 9.07853 8.6084 9.06315 8.59522 9.07853C8.74968 9.06154 8.90471 9.10517 9.02764 9.20023C9.15056 9.2953 9.23179 9.43437 9.25419 9.58814V14.8073C9.25089 14.8615 9.23675 14.9145 9.21261 14.9632C9.18846 15.0118 9.1548 15.0552 9.11361 15.0906C9.0732 15.1267 9.0259 15.1543 8.97457 15.1717C8.92323 15.189 8.86891 15.1958 8.81488 15.1917C8.83025 15.2048 7.97138 15.1917 7.97138 15.1917L7.75172 16.5777H10.0823V18.5151H11.2421V16.6063H12.1691V18.5063H13.3311V16.5909C15.2904 16.4723 16.6567 15.989 16.8281 14.1549C16.9664 12.6787 16.2723 12.0198 15.163 11.754C15.8374 11.4223 16.2547 10.8073 16.1603 9.80121ZM14.5348 13.9264C14.5348 15.3674 12.0658 15.2026 11.2795 15.2026V12.6458C12.0658 12.648 14.5348 12.4217 14.5348 13.9264ZM13.9966 10.324C13.9966 11.642 11.9362 11.4816 11.2817 11.4816V9.15761C11.9362 9.15761 13.9966 8.95113 13.9966 10.324Z" fill="#F09242"/>
<path d="M11.9978 24C9.62459 23.9995 7.30482 23.2954 5.33176 21.9767C3.35871 20.658 1.82098 18.7838 0.913 16.5912C0.00502087 14.3985 -0.232434 11.9859 0.230659 9.65836C0.693751 7.33079 1.8366 5.1928 3.51469 3.5147C5.19279 1.8366 7.33079 0.693759 9.65835 0.230666C11.9859 -0.232426 14.3985 0.0050285 16.5912 0.913008C18.7838 1.82099 20.658 3.35872 21.9767 5.33177C23.2954 7.30482 23.9995 9.6246 24 11.9978C24.0003 13.574 23.69 15.1349 23.087 16.5912C22.4839 18.0475 21.5998 19.3707 20.4853 20.4853C19.3707 21.5998 18.0475 22.4839 16.5912 23.087C15.1349 23.69 13.574 24.0003 11.9978 24ZM11.9978 0.935732C9.81134 0.93747 7.6745 1.58736 5.85732 2.80325C4.04015 4.01914 2.62423 5.74646 1.78852 7.76688C0.952809 9.7873 0.734827 12.0101 1.16213 14.1544C1.58942 16.2987 2.64282 18.2682 4.18917 19.8139C5.73552 21.3596 7.70541 22.4122 9.84986 22.8387C11.9943 23.2651 14.217 23.0463 16.2371 22.2098C18.2572 21.3732 19.984 19.9566 21.1991 18.139C22.4143 16.3213 23.0634 14.1842 23.0642 11.9978C23.0648 10.5446 22.7789 9.10548 22.2229 7.76282C21.6669 6.42017 20.8517 5.20027 19.824 4.17289C18.7962 3.14551 17.576 2.3308 16.2331 1.77534C14.8902 1.21989 13.451 0.934577 11.9978 0.935732Z" fill="#282138"/>
</g>
<defs>
<clipPath id="clip0_74_308">
<rect width="24" height="24" fill="white"/>
</clipPath>
</defs>
</svg>
