<svg width="24" height="24" viewBox="0 0 24 24" fill="none" xmlns="http://www.w3.org/2000/svg">
<path d="M21.9119 2L13.3176 8.37558L14.9158 4.61824L21.9119 2Z" fill="#E17726" stroke="#E17726" stroke-width="0.49375" stroke-linecap="round" stroke-linejoin="round"/>
<path d="M2.08809 2L10.6059 8.43508L9.08423 4.61824L2.08809 2Z" fill="#E27625" stroke="#E27625" stroke-width="0.49375" stroke-linecap="round" stroke-linejoin="round"/>
<path d="M18.8176 16.7828L16.5309 20.2852L21.4274 21.6368L22.83 16.8593L18.8176 16.7828Z" fill="#E27625" stroke="#E27625" stroke-width="0.49375" stroke-linecap="round" stroke-linejoin="round"/>
<path d="M1.17851 16.8593L2.57264 21.6368L7.46058 20.2852L5.18238 16.7828L1.17851 16.8593Z" fill="#E27625" stroke="#E27625" stroke-width="0.49375" stroke-linecap="round" stroke-linejoin="round"/>
<path d="M7.19705 10.8663L5.83693 12.9235L10.6824 13.1445L10.5209 7.91655L7.19705 10.8663Z" fill="#E27625" stroke="#E27625" stroke-width="0.49375" stroke-linecap="round" stroke-linejoin="round"/>
<path d="M16.8029 10.8663L13.4281 7.85704L13.3176 13.1445L18.163 12.9235L16.8029 10.8663Z" fill="#E27625" stroke="#E27625" stroke-width="0.49375" stroke-linecap="round" stroke-linejoin="round"/>
<path d="M7.46058 20.2852L10.3933 18.8655L7.86862 16.8934L7.46058 20.2852Z" fill="#E27625" stroke="#E27625" stroke-width="0.49375" stroke-linecap="round" stroke-linejoin="round"/>
<path d="M13.6066 18.8655L16.5309 20.2852L16.1314 16.8934L13.6066 18.8655Z" fill="#E27625" stroke="#E27625" stroke-width="0.49375" stroke-linecap="round" stroke-linejoin="round"/>
<path d="M16.5309 20.2852L13.6066 18.8655L13.8447 20.7697L13.8191 21.5773L16.5309 20.2852Z" fill="#D5BFB2" stroke="#D5BFB2" stroke-width="0.49375" stroke-linecap="round" stroke-linejoin="round"/>
<path d="M7.46059 20.2852L10.1808 21.5773L10.1638 20.7697L10.3934 18.8655L7.46059 20.2852Z" fill="#D5BFB2" stroke="#D5BFB2" stroke-width="0.49375" stroke-linecap="round" stroke-linejoin="round"/>
<path d="M10.2318 15.6352L7.80061 14.9212L9.51777 14.1306L10.2318 15.6352Z" fill="#233447" stroke="#233447" stroke-width="0.49375" stroke-linecap="round" stroke-linejoin="round"/>
<path d="M13.7682 15.6352L14.4822 14.1306L16.2079 14.9212L13.7682 15.6352Z" fill="#233447" stroke="#233447" stroke-width="0.49375" stroke-linecap="round" stroke-linejoin="round"/>
<path d="M7.46058 20.2852L7.88562 16.7828L5.18237 16.8593L7.46058 20.2852Z" fill="#CC6228" stroke="#CC6228" stroke-width="0.49375" stroke-linecap="round" stroke-linejoin="round"/>
<path d="M16.1144 16.7828L16.5309 20.2852L18.8176 16.8593L16.1144 16.7828Z" fill="#CC6228" stroke="#CC6228" stroke-width="0.49375" stroke-linecap="round" stroke-linejoin="round"/>
<path d="M18.1631 12.9235L13.3176 13.1445L13.7682 15.6352L14.4822 14.1306L16.2079 14.9212L18.1631 12.9235Z" fill="#CC6228" stroke="#CC6228" stroke-width="0.49375" stroke-linecap="round" stroke-linejoin="round"/>
<path d="M7.80062 14.9212L9.51777 14.1306L10.2318 15.6352L10.6824 13.1445L5.83694 12.9235L7.80062 14.9212Z" fill="#CC6228" stroke="#CC6228" stroke-width="0.49375" stroke-linecap="round" stroke-linejoin="round"/>
<path d="M5.83694 12.9235L7.86862 16.8934L7.80062 14.9212L5.83694 12.9235Z" fill="#E27525" stroke="#E27525" stroke-width="0.49375" stroke-linecap="round" stroke-linejoin="round"/>
<path d="M16.2079 14.9212L16.1314 16.8934L18.1631 12.9235L16.2079 14.9212Z" fill="#E27525" stroke="#E27525" stroke-width="0.49375" stroke-linecap="round" stroke-linejoin="round"/>
<path d="M10.6824 13.1445L10.2318 15.6352L10.8014 18.5765L10.9289 14.7002L10.6824 13.1445Z" fill="#E27525" stroke="#E27525" stroke-width="0.49375" stroke-linecap="round" stroke-linejoin="round"/>
<path d="M13.3176 13.1445L13.0796 14.6917L13.1986 18.5765L13.7682 15.6352L13.3176 13.1445Z" fill="#E27525" stroke="#E27525" stroke-width="0.49375" stroke-linecap="round" stroke-linejoin="round"/>
<path d="M13.7682 15.6352L13.1986 18.5765L13.6066 18.8655L16.1314 16.8934L16.2079 14.9212L13.7682 15.6352Z" fill="#F5841F" stroke="#F5841F" stroke-width="0.49375" stroke-linecap="round" stroke-linejoin="round"/>
<path d="M7.80061 14.9212L7.86862 16.8934L10.3933 18.8655L10.8014 18.5765L10.2318 15.6352L7.80061 14.9212Z" fill="#F5841F" stroke="#F5841F" stroke-width="0.49375" stroke-linecap="round" stroke-linejoin="round"/>
<path d="M13.8192 21.5773L13.8447 20.7697L13.6236 20.5827H10.3764L10.1638 20.7697L10.1808 21.5773L7.46059 20.2852L8.41267 21.0672L10.3423 22.4019H13.6491L15.5873 21.0672L16.5309 20.2852L13.8192 21.5773Z" fill="#C0AC9D" stroke="#C0AC9D" stroke-width="0.49375" stroke-linecap="round" stroke-linejoin="round"/>
<path d="M13.6066 18.8655L13.1986 18.5765H10.8014L10.3933 18.8655L10.1638 20.7697L10.3763 20.5827H13.6236L13.8447 20.7697L13.6066 18.8655Z" fill="#161616" stroke="#161616" stroke-width="0.49375" stroke-linecap="round" stroke-linejoin="round"/>
<path d="M22.2774 8.79212L23 5.2728L21.9119 2L13.6066 8.16306L16.8029 10.8663L21.3168 12.1839L22.3114 11.0193L21.8779 10.7048L22.5665 10.0757L22.0394 9.6677L22.728 9.14065L22.2774 8.79212Z" fill="#763E1A" stroke="#763E1A" stroke-width="0.49375" stroke-linecap="round" stroke-linejoin="round"/>
<path d="M1 5.2728L1.73107 8.79212L1.26352 9.14065L1.96059 9.6677L1.43354 10.0757L2.1221 10.7048L1.68856 11.0193L2.68315 12.1839L7.19706 10.8663L10.3934 8.16306L2.0881 2L1 5.2728Z" fill="#763E1A" stroke="#763E1A" stroke-width="0.49375" stroke-linecap="round" stroke-linejoin="round"/>
<path d="M21.3168 12.1839L16.8029 10.8663L18.1631 12.9235L16.1314 16.8934L18.8176 16.8593H22.83L21.3168 12.1839Z" fill="#F5841F" stroke="#F5841F" stroke-width="0.49375" stroke-linecap="round" stroke-linejoin="round"/>
<path d="M7.19707 10.8663L2.68316 12.1839L1.17852 16.8593H5.18238L7.86863 16.8934L5.83694 12.9235L7.19707 10.8663Z" fill="#F5841F" stroke="#F5841F" stroke-width="0.49375" stroke-linecap="round" stroke-linejoin="round"/>
<path d="M13.3176 13.1445L13.6066 8.16306L14.9158 4.61824H9.08424L10.3934 8.16306L10.6824 13.1445L10.7929 14.7087L10.8014 18.5765H13.1986L13.2071 14.7087L13.3176 13.1445Z" fill="#F5841F" stroke="#F5841F" stroke-width="0.49375" stroke-linecap="round" stroke-linejoin="round"/>
</svg>
