<svg width="24" height="24" viewBox="0 0 24 24" fill="none" xmlns="http://www.w3.org/2000/svg">
<path fill-rule="evenodd" clip-rule="evenodd" d="M19.9989 14.8823C20.1398 14.4912 20.5491 14.25 20.9507 14.3576C21.3495 14.4644 21.5896 14.8748 21.4548 15.265C20.1015 19.1847 16.3795 22 12 22C6.47715 22 2 17.5228 2 12C2 6.47715 6.47715 2 12 2C15.1418 2 17.9451 3.44884 19.7784 5.71483L20.7572 4.97726C20.9505 4.83159 21.2278 4.96303 21.2375 5.20489L21.3793 8.75831C21.3876 8.96763 21.1843 9.12085 20.9854 9.05512L17.6087 7.93937C17.3789 7.86343 17.329 7.56059 17.5223 7.41492L18.5796 6.61821C17.0208 4.71474 14.6522 3.5 12 3.5C7.30558 3.5 3.5 7.30558 3.5 12C3.5 16.6944 7.30558 20.5 12 20.5C15.6826 20.5 18.8183 18.1581 19.9989 14.8823Z" fill="white"/>
</svg>
