<svg width="24" height="24" viewBox="0 0 24 24" fill="none" xmlns="http://www.w3.org/2000/svg">
<path d="M16.17 13L12.9426 16.2364C12.7478 16.4318 12.748 16.748 12.9431 16.9431L13.6464 17.6464C13.8417 17.8417 14.1583 17.8417 14.3536 17.6464L19.6464 12.3536C19.8417 12.1583 19.8417 11.8417 19.6464 11.6464L14.3536 6.35355C14.1583 6.15829 13.8417 6.15829 13.6464 6.35355L12.9431 7.05694C12.748 7.25201 12.7478 7.56821 12.9426 7.76355L16.17 11H4.5C4.22386 11 4 11.2239 4 11.5V12.5C4 12.7761 4.22386 13 4.5 13H16.17Z" fill="white"/>
</svg>
