<svg width="24" height="24" viewBox="0 0 24 24" fill="none" xmlns="http://www.w3.org/2000/svg">
<g clip-path="url(#clip0_2824_20408)">
<path fill-rule="evenodd" clip-rule="evenodd" d="M8.04801 15.5087C7.76706 15.8131 7.29256 15.8321 6.98819 15.5511L1.98819 10.9357C1.84175 10.8006 1.75513 10.6127 1.74746 10.4135C1.73979 10.2144 1.8117 10.0204 1.94731 9.87431L6.94731 4.48967C7.22916 4.18613 7.70371 4.16856 8.00724 4.45041C8.31077 4.73226 8.32835 5.20681 8.0465 5.51034L3.55835 10.3438L8.00561 14.4489C8.30998 14.7299 8.32896 15.2043 8.04801 15.5087Z" fill="white"/>
<path fill-rule="evenodd" clip-rule="evenodd" d="M2.7469 10C2.7469 9.58579 3.08269 9.25 3.4969 9.25H15C18.7279 9.25 21.75 12.2721 21.75 16V18C21.75 18.4142 21.4142 18.75 21 18.75C20.5858 18.75 20.25 18.4142 20.25 18V16C20.25 13.1005 17.8995 10.75 15 10.75H3.4969C3.08269 10.75 2.7469 10.4142 2.7469 10Z" fill="white"/>
</g>
<defs>
<clipPath id="clip0_2824_20408">
<rect width="24" height="24" fill="white"/>
</clipPath>
</defs>
</svg>
