<svg width="24" height="24" viewBox="0 0 24 24" fill="none" xmlns="http://www.w3.org/2000/svg">
<path d="M11 16.17L7.76355 12.9426C7.56821 12.7478 7.25201 12.748 7.05694 12.9431L6.35355 13.6464C6.15829 13.8417 6.15829 14.1583 6.35355 14.3536L11.6464 19.6464C11.8417 19.8417 12.1583 19.8417 12.3536 19.6464L17.6464 14.3536C17.8417 14.1583 17.8417 13.8417 17.6464 13.6464L16.9431 12.9431C16.748 12.748 16.4318 12.7478 16.2364 12.9426L13 16.17V4.5C13 4.22386 12.7761 4 12.5 4H11.5C11.2239 4 11 4.22386 11 4.5V16.17Z" fill="white"/>
</svg>
