<svg width="24" height="24" viewBox="0 0 24 24" fill="none" xmlns="http://www.w3.org/2000/svg">
<path d="M2.5 9.5H21.5V20C21.5 20.5523 21.0523 21 20.5 21H3.5C2.94771 21 2.5 20.5523 2.5 20V9.5Z" stroke="white" stroke-opacity="0.85" stroke-width="1.5" stroke-linejoin="round"/>
<path d="M2.5 4.5C2.5 3.94771 2.94771 3.5 3.5 3.5H20.5C21.0523 3.5 21.5 3.94771 21.5 4.5V9.5H2.5V4.5Z" stroke="white" stroke-opacity="0.85" stroke-width="1.5" stroke-linejoin="round"/>
<path d="M8 2V6" stroke="white" stroke-opacity="0.85" stroke-width="1.5" stroke-linecap="round" stroke-linejoin="round"/>
<path d="M16 2V6" stroke="white" stroke-opacity="0.85" stroke-width="1.5" stroke-linecap="round" stroke-linejoin="round"/>
<path d="M14 17H17" stroke="white" stroke-opacity="0.85" stroke-width="1.5" stroke-linecap="round" stroke-linejoin="round"/>
<path d="M7 17H10" stroke="white" stroke-opacity="0.85" stroke-width="1.5" stroke-linecap="round" stroke-linejoin="round"/>
<path d="M14 13H17" stroke="white" stroke-opacity="0.85" stroke-width="1.5" stroke-linecap="round" stroke-linejoin="round"/>
<path d="M7 13H10" stroke="white" stroke-opacity="0.85" stroke-width="1.5" stroke-linecap="round" stroke-linejoin="round"/>
<path d="M13.25 17C13.25 16.5858 13.5858 16.25 14 16.25H17C17.4142 16.25 17.75 16.5858 17.75 17C17.75 17.4142 17.4142 17.75 17 17.75H14C13.5858 17.75 13.25 17.4142 13.25 17Z" fill="white" fill-opacity="0.85"/>
<path d="M7 16.25C6.58579 16.25 6.25 16.5858 6.25 17C6.25 17.4142 6.58579 17.75 7 17.75H10C10.4142 17.75 10.75 17.4142 10.75 17C10.75 16.5858 10.4142 16.25 10 16.25H7Z" fill="white" fill-opacity="0.85"/>
<path d="M13.25 13C13.25 12.5858 13.5858 12.25 14 12.25H17C17.4142 12.25 17.75 12.5858 17.75 13C17.75 13.4142 17.4142 13.75 17 13.75H14C13.5858 13.75 13.25 13.4142 13.25 13Z" fill="white" fill-opacity="0.85"/>
<path d="M7 12.25C6.58579 12.25 6.25 12.5858 6.25 13C6.25 13.4142 6.58579 13.75 7 13.75H10C10.4142 13.75 10.75 13.4142 10.75 13C10.75 12.5858 10.4142 12.25 10 12.25H7Z" fill="white" fill-opacity="0.85"/>
<path fill-rule="evenodd" clip-rule="evenodd" d="M8 1.25C8.41421 1.25 8.75 1.58579 8.75 2V2.75H15.25V2C15.25 1.58579 15.5858 1.25 16 1.25C16.4142 1.25 16.75 1.58579 16.75 2V2.75H20.5C21.4665 2.75 22.25 3.53351 22.25 4.5V20C22.25 20.9665 21.4665 21.75 20.5 21.75H3.5C2.53351 21.75 1.75 20.9665 1.75 20V4.5C1.75 3.5335 2.5335 2.75 3.5 2.75H7.25V2C7.25 1.58579 7.58579 1.25 8 1.25ZM15.25 4.25V6C15.25 6.41421 15.5858 6.75 16 6.75C16.4142 6.75 16.75 6.41421 16.75 6V4.25H20.5C20.6381 4.25 20.75 4.36192 20.75 4.5V8.75H3.25V4.5C3.25 4.36193 3.36193 4.25 3.5 4.25H7.25V6C7.25 6.41421 7.58579 6.75 8 6.75C8.41421 6.75 8.75 6.41421 8.75 6V4.25H15.25ZM20.75 10.25H3.25V20C3.25 20.1381 3.36192 20.25 3.5 20.25H20.5C20.6381 20.25 20.75 20.1381 20.75 20V10.25Z" fill="white" fill-opacity="0.85"/>
</svg>
