<svg width="24" height="24" viewBox="0 0 24 24" fill="none" xmlns="http://www.w3.org/2000/svg">
<path d="M5.10002 7.79846C8.91102 4.06718 15.0899 4.06718 18.9009 7.79846L19.3595 8.24753C19.5501 8.43409 19.5501 8.73658 19.3595 8.92314L17.7905 10.4593C17.6953 10.5526 17.5408 10.5526 17.4455 10.4593L16.8144 9.84134C14.1557 7.2383 9.84519 7.2383 7.18654 9.84134L6.51061 10.5031C6.41533 10.5964 6.26086 10.5964 6.16558 10.5031L4.5966 8.96696C4.40605 8.7804 4.40605 8.47792 4.5966 8.29136L5.10002 7.79846ZM22.1457 10.9754L23.5421 12.3426C23.7326 12.5292 23.7326 12.8317 23.5421 13.0182L17.2456 19.1831C17.0551 19.3696 16.7461 19.3696 16.5556 19.1831C16.5556 19.1831 16.5556 19.1831 16.5556 19.1831L12.0867 14.8077C12.0391 14.7611 11.9619 14.7611 11.9142 14.8077L11.9142 14.8077L7.44547 19.1831C7.25492 19.3696 6.94598 19.3696 6.75543 19.1831C6.75543 19.1831 6.75543 19.1831 6.75543 19.1831L0.458792 13.0181C0.268242 12.8316 0.268242 12.5291 0.458792 12.3425L1.85519 10.9753C2.04574 10.7888 2.35469 10.7888 2.54524 10.9753L7.01414 15.3508C7.06178 15.3974 7.13902 15.3974 7.18665 15.3508C7.18666 15.3508 7.18666 15.3508 7.18666 15.3508L11.6553 10.9753C11.8459 10.7888 12.1548 10.7888 12.3454 10.9753C12.3454 10.9753 12.3454 10.9753 12.3454 10.9753L16.8143 15.3508C16.8619 15.3974 16.9392 15.3974 16.9868 15.3508L21.4556 10.9754C21.6462 10.7889 21.9551 10.7889 22.1457 10.9754Z" fill="#3B99FC"/>
<path d="M5.10002 7.79846C8.91102 4.06718 15.0899 4.06718 18.9009 7.79846L19.3595 8.24753C19.5501 8.43409 19.5501 8.73658 19.3595 8.92314L17.7905 10.4593C17.6953 10.5526 17.5408 10.5526 17.4455 10.4593L16.8144 9.84134C14.1557 7.2383 9.84519 7.2383 7.18654 9.84134L6.51061 10.5031C6.41533 10.5964 6.26086 10.5964 6.16558 10.5031L4.5966 8.96696C4.40605 8.7804 4.40605 8.47792 4.5966 8.29136L5.10002 7.79846ZM22.1457 10.9754L23.5421 12.3426C23.7326 12.5292 23.7326 12.8317 23.5421 13.0182L17.2456 19.1831C17.0551 19.3696 16.7461 19.3696 16.5556 19.1831C16.5556 19.1831 16.5556 19.1831 16.5556 19.1831L12.0867 14.8077C12.0391 14.7611 11.9619 14.7611 11.9142 14.8077L11.9142 14.8077L7.44547 19.1831C7.25492 19.3696 6.94598 19.3696 6.75543 19.1831C6.75543 19.1831 6.75543 19.1831 6.75543 19.1831L0.458792 13.0181C0.268242 12.8316 0.268242 12.5291 0.458792 12.3425L1.85519 10.9753C2.04574 10.7888 2.35469 10.7888 2.54524 10.9753L7.01414 15.3508C7.06178 15.3974 7.13902 15.3974 7.18665 15.3508C7.18666 15.3508 7.18666 15.3508 7.18666 15.3508L11.6553 10.9753C11.8459 10.7888 12.1548 10.7888 12.3454 10.9753C12.3454 10.9753 12.3454 10.9753 12.3454 10.9753L16.8143 15.3508C16.8619 15.3974 16.9392 15.3974 16.9868 15.3508L21.4556 10.9754C21.6462 10.7889 21.9551 10.7889 22.1457 10.9754Z" fill="#3B99FC"/>
</svg>
