<svg width="24" height="24" viewBox="0 0 24 24" fill="none" xmlns="http://www.w3.org/2000/svg">
<path fill-rule="evenodd" clip-rule="evenodd" d="M12 22C17.5228 22 22 17.5228 22 12C22 6.47715 17.5228 2 12 2C6.47715 2 2 6.47715 2 12C2 17.5228 6.47715 22 12 22ZM20.0207 14.8211C20.3311 13.9383 20.5 12.9889 20.5 12C20.5 8.83927 18.7748 6.08147 16.2147 4.61687C16.1809 5.04131 16.1154 5.4688 15.9895 5.86487C15.7359 6.66228 15.2182 7.38449 14.2371 7.71151C14.096 7.75856 13.9721 7.79767 13.8594 7.83326C13.6514 7.89892 13.4813 7.95263 13.3107 8.02209C13.0724 8.11917 12.9416 8.20869 12.8574 8.30606C12.706 8.48091 12.4991 8.93279 12.7398 10.3767C12.8898 11.2766 12.7203 12.0673 12.2481 12.645C11.78 13.2176 11.0944 13.4812 10.4138 13.4847C9.04813 13.4917 7.63093 12.479 7.26454 10.6471C7.14525 10.0506 6.94565 9.87905 6.82074 9.8017C6.73674 9.74969 6.63174 9.70834 6.48329 9.66764C6.40828 9.64707 6.33122 9.62894 6.23991 9.60755L6.23433 9.60625C6.14915 9.58629 6.04875 9.56278 5.94925 9.53514C5.74853 9.47938 5.48962 9.39127 5.24939 9.21484C4.99299 9.02654 4.79616 8.7666 4.67711 8.4293C4.61911 8.26496 4.58053 8.08441 4.56 7.88625C3.88457 9.10522 3.5 10.5077 3.5 12C3.5 16.6944 7.30558 20.5 12 20.5C12.7406 20.5 13.4591 20.4053 14.144 20.2273L13.6622 20.1738C13.7592 19.3004 13.2832 18.5198 12.6861 17.5587C12.4164 17.1246 12.1016 16.616 11.9429 16.1007C11.7703 15.5404 11.7617 14.9062 12.1683 14.2963C12.5118 13.7811 12.9472 13.474 13.455 13.3507C13.9227 13.2371 14.3841 13.2986 14.7421 13.3623C14.8775 13.3864 14.9973 13.4103 15.1084 13.4324C15.3328 13.4771 15.5219 13.5148 15.733 13.5332C16.0139 13.5577 16.2326 13.5326 16.4289 13.442C17.4743 12.9595 18.4375 13.2896 19.1544 13.8762C19.478 14.141 19.7673 14.4674 20.0207 14.8211ZM19.2502 16.4391C18.9544 15.86 18.59 15.3526 18.2045 15.0371C17.787 14.6955 17.4308 14.6316 17.0574 14.8039C16.5443 15.0408 16.0395 15.0656 15.6028 15.0276C15.3061 15.0017 14.986 14.9382 14.7275 14.8869C14.6357 14.8687 14.5517 14.852 14.4792 14.8391C14.1519 14.7808 13.9541 14.7731 13.809 14.8083C13.7039 14.8338 13.5729 14.8936 13.4164 15.1284C13.3229 15.2685 13.299 15.4076 13.3764 15.6592C13.4677 15.9556 13.6684 16.2973 13.9602 16.7671L14.0394 16.8941C14.5081 17.6444 15.1508 18.6732 15.1736 19.8877C16.8741 19.2029 18.3022 17.9841 19.2502 16.4391ZM12 3.5C12.9607 3.5 13.8841 3.65937 14.7453 3.95311C14.7323 4.51746 14.6874 5.00949 14.56 5.4103C14.4134 5.87128 14.1811 6.14907 13.7628 6.28849C13.6758 6.31751 13.58 6.34782 13.4802 6.37945C13.2381 6.45614 12.9716 6.54056 12.7448 6.63294C12.3999 6.77347 12.0257 6.97496 11.7232 7.32438C11.1011 8.04313 11.0076 9.10803 11.2602 10.6233C11.3568 11.203 11.2246 11.527 11.0868 11.6956C10.9449 11.8691 10.7121 11.9831 10.406 11.9847C9.79843 11.9878 8.96903 11.521 8.73541 10.3529C8.55471 9.44939 8.16681 8.87095 7.61047 8.52643C7.35384 8.3675 7.09478 8.27994 6.87994 8.22103C6.77576 8.19246 6.6737 8.16856 6.588 8.14849L6.58202 8.14709C6.49015 8.12557 6.41778 8.10849 6.35071 8.08986C6.21393 8.05187 6.16034 8.02279 6.13729 8.00586L6.13606 8.00498C6.1285 7.99959 6.11199 7.98784 6.0916 7.93007C6.02695 7.7469 5.5 6.5 6.23433 5.75438L5.89333 6.08741C7.43851 4.49183 9.60343 3.5 12 3.5Z" fill="white"/>
</svg>
