<svg width="24" height="24" viewBox="0 0 24 24" fill="none" xmlns="http://www.w3.org/2000/svg">
<path fill-rule="evenodd" clip-rule="evenodd" d="M20.5 12C20.5 16.6944 16.6944 20.5 12 20.5C7.30558 20.5 3.5 16.6944 3.5 12C3.5 7.30558 7.30558 3.5 12 3.5C16.6944 3.5 20.5 7.30558 20.5 12ZM22 12C22 17.5228 17.5228 22 12 22C6.47715 22 2 17.5228 2 12C2 6.47715 6.47715 2 12 2C17.5228 2 22 6.47715 22 12ZM11.25 7.25C11.25 6.83579 11.5858 6.5 12 6.5C12.4142 6.5 12.75 6.83579 12.75 7.25V12H16.75C17.1642 12 17.5 12.3358 17.5 12.75C17.5 13.1642 17.1642 13.5 16.75 13.5H12C11.5858 13.5 11.25 13.1642 11.25 12.75V7.25Z" fill="white"/>
</svg>
