<svg width="24" height="24" viewBox="0 0 24 24" fill="none" xmlns="http://www.w3.org/2000/svg">
<path d="M13 7.83L16.2364 11.0574C16.4318 11.2522 16.748 11.252 16.9431 11.0569L17.6464 10.3536C17.8417 10.1583 17.8417 9.84171 17.6464 9.64645L12.3536 4.35355C12.1583 4.15829 11.8417 4.15829 11.6464 4.35355L6.35355 9.64645C6.15829 9.84171 6.15829 10.1583 6.35355 10.3536L7.05694 11.0569C7.25201 11.252 7.56821 11.2522 7.76355 11.0574L11 7.83V19.5C11 19.7761 11.2239 20 11.5 20H12.5C12.7761 20 13 19.7761 13 19.5V7.83Z" fill="white"/>
</svg>
