<svg width="24" height="24" viewBox="0 0 24 24" fill="none" xmlns="http://www.w3.org/2000/svg">
<g clip-path="url(#clip0_666_496)">
<path fill-rule="evenodd" clip-rule="evenodd" d="M6.76299 5.70233C6.43349 5.37282 5.92893 5.34315 5.63604 5.63604C5.34315 5.92893 5.37283 6.43349 5.70233 6.76299L10.9393 12L5.70233 17.237C5.37283 17.5665 5.34315 18.0711 5.63604 18.364C5.92893 18.6569 6.43349 18.6272 6.76299 18.2977L12 13.0607L17.237 18.2977C17.5665 18.6272 18.0711 18.6569 18.364 18.364C18.6569 18.0711 18.6272 17.5665 18.2977 17.237L13.0607 12L18.2977 6.76299C18.6272 6.43348 18.6569 5.92893 18.364 5.63604C18.0711 5.34314 17.5665 5.37282 17.237 5.70233L12 10.9393L6.76299 5.70233Z" fill="white"/>
</g>
<defs>
<clipPath id="clip0_666_496">
<rect width="24" height="24" fill="white"/>
</clipPath>
</defs>
</svg>
