<svg width="24" height="24" viewBox="0 0 24 24" fill="none" xmlns="http://www.w3.org/2000/svg">
<g clip-path="url(#clip0_74_308)">
<circle cx="12" cy="12" r="12" fill="white"/>
<path d="M19.5694 5.03671L18.9105 5.69569C20.4829 7.41525 21.3549 9.66101 21.3549 11.9911C21.3549 14.3212 20.4829 16.567 18.9105 18.2866L19.5694 18.9455C21.3181 17.0487 22.289 14.5633 22.289 11.9834C22.289 9.40355 21.3181 6.91813 19.5694 5.02133V5.03671Z" fill="#5A5564"/>
<path d="M5.71122 5.09395C7.43078 3.52152 9.67655 2.64952 12.0067 2.64952C14.3368 2.64952 16.5825 3.52152 18.3021 5.09395L18.9611 4.43497C17.0643 2.68626 14.5789 1.71539 11.999 1.71539C9.41908 1.71539 6.93367 2.68626 5.03687 4.43497L5.71122 5.09395Z" fill="#5A5564"/>
<path d="M5.09389 18.2933C3.52332 16.5741 2.65247 14.3297 2.65247 12.0011C2.65247 9.67254 3.52332 7.42815 5.09389 5.70897L4.43491 5.04999C2.6862 6.94679 1.71533 9.4322 1.71533 12.0121C1.71533 14.592 2.6862 17.0774 4.43491 18.9742L5.09389 18.2933Z" fill="#5A5564"/>
<path d="M18.2933 18.9019C16.5738 20.4743 14.328 21.3463 11.9979 21.3463C9.66776 21.3463 7.422 20.4743 5.70244 18.9019L5.04346 19.5608C6.94026 21.3095 9.42567 22.2804 12.0056 22.2804C14.5855 22.2804 17.0709 21.3095 18.9677 19.5608L18.2933 18.9019Z" fill="#5A5564"/>
<path d="M16.1603 9.8012C16.0285 8.42613 14.8423 7.96485 13.342 7.82427V5.9308H12.1822V7.78912C11.8769 7.78912 11.565 7.78912 11.2553 7.78912V5.9308H10.1043V7.83745H7.75171V9.07852C7.75171 9.07852 8.60838 9.06315 8.5952 9.07852C8.74967 9.06153 8.9047 9.10516 9.02762 9.20023C9.15055 9.29529 9.23177 9.43436 9.25418 9.58813V14.8072C9.25088 14.8615 9.23674 14.9145 9.21259 14.9632C9.18844 15.0118 9.15478 15.0552 9.1136 15.0906C9.07319 15.1267 9.02589 15.1543 8.97455 15.1716C8.92321 15.189 8.8689 15.1958 8.81486 15.1916C8.83024 15.2048 7.97137 15.1916 7.97137 15.1916L7.75171 16.5777H10.0823V18.5151H11.2421V16.6063H12.1691V18.5063H13.3311V16.5909C15.2904 16.4723 16.6567 15.989 16.828 14.1549C16.9664 12.6787 16.2723 12.0198 15.163 11.754C15.8374 11.4223 16.2547 10.8072 16.1603 9.8012ZM14.5348 13.9264C14.5348 15.3674 12.0658 15.2026 11.2794 15.2026V12.6458C12.0658 12.648 14.5348 12.4217 14.5348 13.9264ZM13.9966 10.324C13.9966 11.6419 11.9362 11.4816 11.2816 11.4816V9.1576C11.9362 9.1576 13.9966 8.95112 13.9966 10.324Z" fill="#F09242"/>
<path d="M11.9978 24C9.62459 23.9995 7.30482 23.2954 5.33176 21.9767C3.35871 20.658 1.82098 18.7838 0.913 16.5912C0.00502087 14.3985 -0.232434 11.9859 0.230659 9.65835C0.693751 7.33079 1.8366 5.19279 3.51469 3.51469C5.19279 1.8366 7.33079 0.693751 9.65835 0.230659C11.9859 -0.232434 14.3985 0.00502087 16.5912 0.913C18.7838 1.82098 20.658 3.35871 21.9767 5.33176C23.2954 7.30482 23.9995 9.62459 24 11.9978C24.0003 13.574 23.69 15.1349 23.087 16.5912C22.4839 18.0475 21.5998 19.3707 20.4853 20.4853C19.3707 21.5998 18.0475 22.4839 16.5912 23.087C15.1349 23.69 13.574 24.0003 11.9978 24ZM11.9978 0.935724C9.81134 0.937462 7.6745 1.58735 5.85732 2.80324C4.04015 4.01913 2.62423 5.74645 1.78852 7.76687C0.952809 9.78729 0.734827 12.0101 1.16213 14.1544C1.58942 16.2987 2.64282 18.2681 4.18917 19.8139C5.73552 21.3596 7.70541 22.4122 9.84986 22.8387C11.9943 23.2651 14.217 23.0463 16.2371 22.2098C18.2572 21.3732 19.984 19.9566 21.1991 18.139C22.4143 16.3213 23.0634 14.1842 23.0642 11.9978C23.0648 10.5446 22.7789 9.10547 22.2229 7.76281C21.6669 6.42016 20.8517 5.20026 19.824 4.17288C18.7962 3.1455 17.576 2.33079 16.2331 1.77534C14.8902 1.21988 13.451 0.93457 11.9978 0.935724Z" fill="#282138"/>
</g>
<defs>
<clipPath id="clip0_74_308">
<rect width="24" height="24" fill="white"/>
</clipPath>
</defs>
</svg>
