<svg width="24" height="24" viewBox="0 0 24 24" fill="none" xmlns="http://www.w3.org/2000/svg">
<g clip-path="url(#clip0_303_199)">
<path fill-rule="evenodd" clip-rule="evenodd" d="M12.0003 0.500015C9.15151 0.501493 6.39615 1.51047 4.22688 3.34654C2.05762 5.1826 0.615919 7.72603 0.15956 10.522C-0.296799 13.318 0.261942 16.1842 1.73589 18.6082C3.20983 21.0322 5.50285 22.8558 8.20494 23.753C8.80107 23.8636 9.02561 23.4942 9.02561 23.18C9.02561 22.8659 9.01369 21.955 9.00971 20.9592C5.67141 21.6804 4.966 19.5505 4.966 19.5505C4.42154 18.1675 3.63465 17.8039 3.63465 17.8039C2.54573 17.065 3.71613 17.0788 3.71613 17.0788C4.92229 17.1638 5.55617 18.3097 5.55617 18.3097C6.62522 20.1334 8.36391 19.6058 9.04747 19.2976C9.15477 18.5251 9.46675 17.9995 9.81051 17.7012C7.14385 17.4009 4.34205 16.3774 4.34205 11.8054C4.32553 10.6197 4.76804 9.47307 5.57803 8.6027C5.45483 8.30238 5.04349 7.08925 5.69526 5.44145C5.69526 5.44145 6.70272 5.12137 8.99581 6.66446C10.9627 6.12964 13.0379 6.12964 15.0048 6.66446C17.2959 5.12137 18.3013 5.44145 18.3013 5.44145C18.9551 7.0853 18.5437 8.29843 18.4205 8.6027C19.2331 9.47321 19.6765 10.6219 19.6585 11.8094C19.6585 16.3912 16.8507 17.4009 14.1801 17.6952C14.6093 18.0667 14.9928 18.7918 14.9928 19.9061C14.9928 21.5026 14.9789 22.7868 14.9789 23.18C14.9789 23.4981 15.1955 23.8696 15.8036 23.753C18.506 22.8557 20.7992 21.0317 22.2731 18.6073C23.747 16.183 24.3055 13.3163 23.8486 10.5201C23.3917 7.72382 21.9493 5.18037 19.7793 3.34462C17.6094 1.50887 14.8534 0.500556 12.0042 0.500015H12.0003Z" fill="white" fill-opacity="0.3"/>
<path d="M4.54445 17.632C4.51862 17.6913 4.42324 17.7091 4.34574 17.6676C4.26825 17.6261 4.21063 17.549 4.23845 17.4878C4.26626 17.4265 4.35966 17.4107 4.43715 17.4522C4.51465 17.4937 4.57426 17.5727 4.54445 17.632Z" fill="white" fill-opacity="0.3"/>
<path d="M5.03131 18.1714C4.99015 18.192 4.94307 18.1978 4.89813 18.1877C4.85318 18.1776 4.81316 18.1523 4.78491 18.1161C4.70741 18.0331 4.69151 17.9185 4.75112 17.8671C4.81073 17.8157 4.91804 17.8395 4.99554 17.9224C5.07304 18.0054 5.09092 18.12 5.03131 18.1714Z" fill="white" fill-opacity="0.3"/>
<path d="M5.23597 18.7542C5.30551 18.857 5.43071 18.9083 5.50423 18.857C5.57576 18.8056 5.57378 18.6712 5.50423 18.5705C5.43468 18.4697 5.30949 18.4203 5.23597 18.4697C5.21673 18.4881 5.20144 18.5102 5.19099 18.5347C5.18055 18.5591 5.17516 18.5854 5.17516 18.612C5.17516 18.6385 5.18055 18.6648 5.19099 18.6893C5.20144 18.7137 5.21673 18.7358 5.23597 18.7542Z" fill="white" fill-opacity="0.3"/>
<path d="M6.14605 19.5209C6.08048 19.594 5.94735 19.5742 5.83806 19.4754C5.72877 19.3766 5.70293 19.2423 5.7685 19.1712C5.83408 19.1 5.96721 19.1198 6.08048 19.2166C6.19374 19.3134 6.2156 19.4497 6.14605 19.5209Z" fill="white" fill-opacity="0.3"/>
<path d="M6.74611 20.0029C6.88123 20.0425 7.01635 20.001 7.04616 19.9081C7.07199 19.8113 6.98456 19.7066 6.84745 19.6631C6.71034 19.6196 6.57323 19.6631 6.5474 19.758C6.52157 19.8528 6.61099 19.9634 6.74611 20.0029Z" fill="white" fill-opacity="0.3"/>
<path d="M8.02783 19.9752C8.02783 20.0721 7.91656 20.155 7.77349 20.157C7.63042 20.159 7.51318 20.08 7.51318 19.9831C7.51318 19.8863 7.62445 19.8033 7.76753 19.8014C7.9106 19.7994 8.02783 19.8764 8.02783 19.9752Z" fill="white" fill-opacity="0.3"/>
<path d="M8.71737 20.0444C8.86044 20.0207 8.95979 19.9199 8.94191 19.8231C8.92403 19.7263 8.79487 19.667 8.65577 19.6927C8.51667 19.7184 8.41335 19.8211 8.43123 19.916C8.44911 20.0108 8.5743 20.0681 8.71737 20.0444Z" fill="white" fill-opacity="0.3"/>
</g>
<defs>
<clipPath id="clip0_303_199">
<rect width="24" height="24" fill="white"/>
</clipPath>
</defs>
</svg>
