<svg width="24" height="24" viewBox="0 0 24 24" fill="none" xmlns="http://www.w3.org/2000/svg">
<path d="M12 11.0625C12 11.3111 12.0988 11.5496 12.2746 11.7254C12.4504 11.9012 12.6889 12 12.9375 12C13.1861 12 13.4246 11.9012 13.6004 11.7254C13.7762 11.5496 13.875 11.3111 13.875 11.0625C13.875 10.8139 13.7762 10.5754 13.6004 10.3996C13.4246 10.2238 13.1861 10.125 12.9375 10.125C12.6889 10.125 12.4504 10.2238 12.2746 10.3996C12.0988 10.5754 12 10.8139 12 11.0625Z" fill="white"/>
<path d="M20.6016 19.3336L16.3195 8.25V4.17188H18V2.57812H6.00001V4.17188H7.68048V8.25L3.39845 19.3336C3.33282 19.507 3.29767 19.6898 3.29767 19.875C3.29767 20.7023 3.97032 21.375 4.79767 21.375H19.2024C19.3875 21.375 19.5703 21.3398 19.7438 21.2742C20.5172 20.9766 20.9016 20.107 20.6016 19.3336ZM9.27423 8.54766V4.21875H14.7258V8.54766L16.8563 14.0625C16.3711 13.9383 15.8695 13.875 15.3586 13.875C13.9242 13.875 12.5649 14.3789 11.4844 15.2812C10.6899 15.9422 9.69611 16.3102 8.64142 16.3102C7.87501 16.3102 7.13907 16.1156 6.48986 15.7547L9.27423 8.54766ZM4.93361 19.7812L5.91095 17.2547C6.74767 17.6789 7.67814 17.9062 8.64376 17.9062C10.0781 17.9062 11.4375 17.4023 12.518 16.5C13.3125 15.8391 14.3063 15.4711 15.361 15.4711C16.1813 15.4711 16.9641 15.6938 17.6484 16.1063L19.0664 19.7812H4.93361Z" fill="white"/>
</svg>
