<svg width="24" height="24" viewBox="0 0 24 24" fill="none" xmlns="http://www.w3.org/2000/svg">
<path fill-rule="evenodd" clip-rule="evenodd" d="M4.25 4.5C4.25 3.5335 5.0335 2.75 6 2.75H14.0388C14.8742 2.75 15.6643 3.12975 16.1861 3.78209L19.1474 7.48365C19.5375 7.97126 19.75 8.57712 19.75 9.20156V19.5C19.75 20.4665 18.9665 21.25 18 21.25H6C5.0335 21.25 4.25 20.4665 4.25 19.5V4.5ZM6 4.25C5.86193 4.25 5.75 4.36193 5.75 4.5V19.5C5.75 19.6381 5.86193 19.75 6 19.75H17.6893L14.8069 16.8676C13.1496 18.0239 10.8522 17.8627 9.37346 16.3839C7.71373 14.7242 7.71373 12.0332 9.37346 10.3735C11.0332 8.71376 13.7241 8.71376 15.3839 10.3735C16.8626 11.8523 17.0239 14.1496 15.8676 15.8069L18.25 18.1894V9.20156C18.25 8.91772 18.1534 8.64233 17.9761 8.42069L15.0148 4.71913C14.7776 4.42261 14.4185 4.25 14.0388 4.25H6ZM10.4341 11.4341C9.36018 12.5081 9.36018 14.2493 10.4341 15.3232C11.5081 16.3972 13.2493 16.3972 14.3232 15.3232C15.3971 14.2493 15.3971 12.5081 14.3232 11.4341C13.2493 10.3602 11.5081 10.3602 10.4341 11.4341Z" fill="white"/>
</svg>
