<svg width="24" height="24" viewBox="0 0 24 24" fill="none" xmlns="http://www.w3.org/2000/svg">
<path d="M12.7643 11.1629C12.5794 11.2424 12.3765 11.2868 12.163 11.2868C11.9495 11.2868 11.7467 11.2424 11.5617 11.1629C11.5117 11.1414 11.4698 11.2055 11.5075 11.2452C11.673 11.4197 11.9055 11.5286 12.163 11.5286C12.4205 11.5286 12.6526 11.4197 12.8185 11.2452C12.8509 11.2109 12.8245 11.1586 12.7844 11.1586C12.778 11.1586 12.771 11.16 12.7643 11.1629Z" fill="#FFC412"/>
<path d="M10.7991 14.4767C10.6895 14.3864 10.6895 14.2166 10.7991 14.1264C11.1717 13.8194 11.6459 13.6353 12.163 13.6353C12.6801 13.6353 13.1542 13.8194 13.5269 14.1264C13.6364 14.2166 13.6364 14.3864 13.5269 14.4767C13.1542 14.7837 12.6797 14.9678 12.163 14.9678C11.6462 14.9678 11.1717 14.7837 10.7991 14.4767ZM10.0784 13.8179L8.71941 12.436C8.59013 12.3045 8.59366 12.0878 8.73068 11.9653C9.68033 11.1146 10.8864 10.65 12.1633 10.65C13.4402 10.65 14.6463 11.1146 15.596 11.9653C15.733 12.0882 15.7361 12.3049 15.6072 12.436L14.2483 13.8179C14.1341 13.934 13.951 13.9473 13.8256 13.8437C13.3564 13.4572 12.7759 13.247 12.1637 13.247C11.5515 13.247 10.971 13.4569 10.5018 13.8437C10.4447 13.891 10.3753 13.9139 10.3063 13.9139C10.2231 13.9139 10.1407 13.881 10.0784 13.8179ZM13.8249 6.91355C13.9503 6.81003 14.1334 6.82328 14.2476 6.9397L15.6069 8.32165C15.7361 8.45311 15.7326 8.66982 15.5956 8.79233C14.6463 9.64307 13.4399 10.1077 12.163 10.1077C10.8861 10.1077 9.67998 9.64307 8.73033 8.79233C8.5933 8.66947 8.58978 8.45275 8.71905 8.32165L10.078 6.9397C10.1921 6.82364 10.3753 6.81038 10.5007 6.91355C10.9699 7.30005 11.5504 7.50996 12.1626 7.50996C12.7752 7.51032 13.3557 7.30005 13.8249 6.91355ZM11.0633 1.72818L11.0594 1.72997C10.2975 2.04984 9.70147 2.67778 9.41368 3.46296L6.94444 10.2574C6.81939 10.5497 6.75 10.8717 6.75 11.2106C6.75 11.9854 7.11211 12.6735 7.67324 13.1112C7.71269 13.142 7.74967 13.1753 7.78419 13.2115C7.80145 13.2294 7.81907 13.2473 7.83738 13.2649L10.6022 15.85C10.8959 16.1352 11.2584 16.3365 11.6529 16.4339C12.0101 16.522 12.3828 16.522 12.7399 16.4339C13.1348 16.3365 13.4969 16.1352 13.7907 15.85L16.5555 13.2649C16.6365 13.1864 16.7087 13.1108 16.7858 13.0195C16.7971 13.0062 16.8087 12.9934 16.8211 12.9808C17.2656 12.5209 17.5763 11.9094 17.5763 11.2109C17.5763 11.0318 17.5566 10.8574 17.5199 10.6897C17.5125 10.6554 17.502 10.6213 17.4903 10.5884L14.969 3.45866C14.6815 2.67599 14.0876 2.04984 13.3285 1.72997C12.9654 1.57666 12.5797 1.5 12.194 1.5C11.8097 1.5 11.4254 1.57594 11.0633 1.72818Z" fill="#FFC412"/>
<path fill-rule="evenodd" clip-rule="evenodd" d="M5.13485 19L6.29665 21.9998H7.11035L5.94876 19H5.13485ZM3 22H3.8137L4.9755 19.0002H4.16159L3 22ZM20.329 19H21.2526L20.065 20.4999L21.2526 21.9998H20.329L19.6031 21.0831L18.8772 21.9998H17.9537L19.1412 20.4999L17.9537 19H18.8772L19.6031 19.9167L20.329 19ZM10.973 19H9.31308H8.63325V19.6916V20.2594V20.951V21.9998H9.31308V20.951H10.973C11.5028 20.951 11.9322 20.5144 11.9322 19.9756C11.9322 19.4366 11.5026 19 10.973 19ZM10.973 20.2594H9.31308V19.6916H10.973C11.1272 19.6916 11.2521 19.8186 11.2521 19.9756C11.2523 20.1322 11.1272 20.2594 10.973 20.2594ZM16.6457 19.9936C16.6361 20.5306 16.1829 20.9507 15.6549 20.9507V20.951H14.0268V21.0536C14.0268 21.1944 14.139 21.3085 14.2775 21.3085H16.5135L16.2676 21.9998H14.0611C13.6667 21.9998 13.347 21.6747 13.347 21.2736V19.5925C13.347 19.2654 13.6079 19 13.9296 19H15.6867C16.2224 19 16.6555 19.4466 16.6457 19.9936ZM14.2349 19.6913C14.12 19.6913 14.0268 19.7862 14.0268 19.903V20.2592H15.6867C15.8459 20.2592 15.9741 20.1237 15.9656 19.96C15.9578 19.8064 15.8221 19.6913 15.671 19.6913H15.426H14.2349Z" fill="#FFC412"/>
</svg>
