<svg width="24" height="24" viewBox="0 0 24 24" fill="none" xmlns="http://www.w3.org/2000/svg">
<path d="M6.21967 15.5303C5.92678 15.2374 5.92678 14.7626 6.21967 14.4697L8.87132 11.818L6.21967 9.16638C5.92678 8.87348 5.92678 8.39861 6.21967 8.10572C6.51256 7.81282 6.98744 7.81282 7.28033 8.10572L10.4623 11.2877C10.7552 11.5806 10.7552 12.0555 10.4623 12.3484L7.28033 15.5303C6.98744 15.8232 6.51256 15.8232 6.21967 15.5303Z" fill="white"/>
<path d="M12 14.25C11.5858 14.25 11.25 14.5858 11.25 15C11.25 15.4142 11.5858 15.75 12 15.75H17C17.4142 15.75 17.75 15.4142 17.75 15C17.75 14.5858 17.4142 14.25 17 14.25H12Z" fill="white"/>
<path fill-rule="evenodd" clip-rule="evenodd" d="M2.25 6C2.25 5.0335 3.0335 4.25 4 4.25H20C20.9665 4.25 21.75 5.0335 21.75 6V18C21.75 18.9665 20.9665 19.75 20 19.75H4C3.0335 19.75 2.25 18.9665 2.25 18V6ZM4 5.75C3.86193 5.75 3.75 5.86193 3.75 6V18C3.75 18.1381 3.86193 18.25 4 18.25H20C20.1381 18.25 20.25 18.1381 20.25 18V6C20.25 5.86193 20.1381 5.75 20 5.75H4Z" fill="white"/>
</svg>
