<svg width="24" height="24" viewBox="0 0 24 24" fill="none" xmlns="http://www.w3.org/2000/svg">
<path fill-rule="evenodd" clip-rule="evenodd" d="M12 24C18.6274 24 24 18.6274 24 12C24 5.37258 18.6274 0 12 0C5.37258 0 0 5.37258 0 12C0 18.6274 5.37258 24 12 24ZM8.33333 18.3339H16.3333C16.687 18.3339 17.0261 18.1934 17.2761 17.9434C17.5262 17.6933 17.6667 17.3542 17.6667 17.0006V9.66725C17.6664 9.66275 17.6658 9.65828 17.6647 9.65391V9.64991C17.6622 9.64374 17.6606 9.63722 17.66 9.63058C17.6569 9.57203 17.6459 9.51418 17.6273 9.45858L17.6207 9.43991C17.616 9.42458 17.6113 9.41058 17.6053 9.39591C17.5731 9.32329 17.5279 9.2571 17.472 9.20058L13.472 5.20058C13.4155 5.1447 13.3493 5.09953 13.2767 5.06725C13.2659 5.05678 13.2543 5.0472 13.242 5.03858H13.234H13.224H13.214C13.1582 5.01978 13.1001 5.00835 13.0413 5.00458C13.0348 5.00389 13.0283 5.00255 13.022 5.00058H13.018C13.012 4.99981 13.006 4.99981 13 5.00058H8.33333C7.59695 5.00058 7 5.59753 7 6.33391V17.0006C7 17.737 7.59695 18.3339 8.33333 18.3339ZM13 9.66725V6.33391L16.3333 9.66725H13Z" fill="white" fill-opacity="0.3"/>
</svg>
