<svg width="24" height="24" viewBox="0 0 24 24" fill="none" xmlns="http://www.w3.org/2000/svg">
<path fill-rule="evenodd" clip-rule="evenodd" d="M6 2.75C5.0335 2.75 4.25 3.5335 4.25 4.5V19.5C4.25 20.4665 5.0335 21.25 6 21.25H18C18.9665 21.25 19.75 20.4665 19.75 19.5V9.20156C19.75 8.57712 19.5375 7.97126 19.1474 7.48365L16.1861 3.78209C15.6643 3.12975 14.8742 2.75 14.0388 2.75H6ZM5.75 4.5C5.75 4.36193 5.86193 4.25 6 4.25H13.25V8.5C13.25 9.4665 14.0335 10.25 15 10.25H18.25V19.5C18.25 19.6381 18.1381 19.75 18 19.75H6C5.86193 19.75 5.75 19.6381 5.75 19.5V4.5ZM18.1656 8.75C18.1199 8.63204 18.0562 8.52088 17.9761 8.42069L15.0148 4.71913C14.9382 4.62328 14.8487 4.54038 14.75 4.47207V8.5C14.75 8.63807 14.8619 8.75 15 8.75H18.1656Z" fill="white"/>
</svg>
