<svg width="24" height="24" viewBox="0 0 24 24" fill="none" xmlns="http://www.w3.org/2000/svg">
<path d="M8.46448 8.46444C8.75738 8.17155 9.23225 8.17155 9.52514 8.46444L12 10.9393L14.4748 8.46445C14.7677 8.17156 15.2426 8.17156 15.5355 8.46445C15.8284 8.75734 15.8284 9.23222 15.5355 9.52511L13.0607 12L15.5355 14.4748C15.8284 14.7677 15.8284 15.2426 15.5355 15.5355C15.2427 15.8284 14.7678 15.8284 14.4749 15.5355L12 13.0606L9.5251 15.5355C9.23221 15.8284 8.75734 15.8284 8.46444 15.5355C8.17155 15.2426 8.17155 14.7678 8.46444 14.4749L10.9393 12L8.46448 9.5251C8.17159 9.23221 8.17159 8.75734 8.46448 8.46444Z" fill="#D95140"/>
<path fill-rule="evenodd" clip-rule="evenodd" d="M1.25 12C1.25 6.06294 6.06294 1.25 12 1.25C17.9371 1.25 22.75 6.06294 22.75 12C22.75 17.9371 17.9371 22.75 12 22.75C6.06294 22.75 1.25 17.9371 1.25 12ZM12 2.75C6.89137 2.75 2.75 6.89137 2.75 12C2.75 17.1086 6.89137 21.25 12 21.25C17.1086 21.25 21.25 17.1086 21.25 12C21.25 6.89137 17.1086 2.75 12 2.75Z" fill="#D95140"/>
</svg>
