<svg width="24" height="24" viewBox="0 0 24 24" fill="none" xmlns="http://www.w3.org/2000/svg">
<path d="M1.75 4C1.75 3.0335 2.5335 2.25 3.5 2.25H9.5C9.72258 2.25 9.93367 2.34887 10.0762 2.51986L12.3513 5.25H20.5C21.4665 5.25 22.25 6.03349 22.25 7V11.5C22.25 11.9142 21.9142 12.25 21.5 12.25C21.0858 12.25 20.75 11.9142 20.75 11.5V7C20.75 6.86191 20.6381 6.75 20.5 6.75H12C11.7774 6.75 11.5663 6.65113 11.4238 6.48014L9.14872 3.75H3.5C3.36193 3.75 3.25 3.86193 3.25 4V20C3.25 20.1381 3.36192 20.25 3.5 20.25H11C11.4142 20.25 11.75 20.5858 11.75 21C11.75 21.4142 11.4142 21.75 11 21.75H3.5C2.53351 21.75 1.75 20.9665 1.75 20V4Z" fill="white"/>
<path d="M18.4697 13.9697C18.7626 13.6768 19.2374 13.6768 19.5303 13.9697L22.0303 16.4697C22.3232 16.7626 22.3232 17.2374 22.0303 17.5303L19.5303 20.0303C19.2374 20.3232 18.7626 20.3232 18.4697 20.0303C18.1768 19.7374 18.1768 19.2626 18.4697 18.9697L20.4393 17L18.4697 15.0303C18.1768 14.7374 18.1768 14.2626 18.4697 13.9697Z" fill="white"/>
<path d="M15.5303 15.0303C15.8232 14.7374 15.8232 14.2626 15.5303 13.9697C15.2374 13.6768 14.7626 13.6768 14.4697 13.9697L11.9697 16.4697C11.6768 16.7626 11.6768 17.2374 11.9697 17.5303L14.4697 20.0303C14.7626 20.3232 15.2374 20.3232 15.5303 20.0303C15.8232 19.7374 15.8232 19.2626 15.5303 18.9697L13.5607 17L15.5303 15.0303Z" fill="white"/>
</svg>
