<svg width="24" height="24" viewBox="0 0 24 24" fill="none" xmlns="http://www.w3.org/2000/svg">
<path d="M14.8918 10.9966L16.6543 8.00595L21.4051 15.4054L21.4073 16.8254L21.3918 7.0538C21.3806 6.81494 21.2537 6.59641 21.0514 6.46756L12.4983 1.5477C12.2982 1.44939 12.0445 1.45043 11.8448 1.55076C11.8178 1.56431 11.7924 1.57898 11.7682 1.595L11.7384 1.61377L3.43628 6.42481L3.40403 6.43941C3.36262 6.45848 3.32076 6.48268 3.28143 6.51084C3.12406 6.62375 3.01949 6.79066 2.98567 6.9779C2.98061 7.00628 2.97689 7.03518 2.9751 7.0643L2.98813 15.0272L7.41322 8.16854C7.97033 7.25906 9.18421 6.96613 10.311 6.98207L11.6336 7.017L3.84115 19.5138L4.75972 20.0427L12.6455 7.02966L16.131 7.017L8.26557 20.3584L11.5433 22.2437L11.9349 22.4689C12.1006 22.5362 12.2958 22.5396 12.4629 22.4793L21.1362 17.453L19.478 18.4139L14.8918 10.9966ZM15.5643 20.682L12.2537 15.4861L14.2746 12.0569L18.6223 18.9097L15.5643 20.682Z" fill="#2D374B"/>
<path d="M12.2534 15.486L15.564 20.6819L18.6221 18.9096L14.2744 12.0568L12.2534 15.486Z" fill="#28A0F0"/>
<path d="M21.4086 16.8251L21.4064 15.4052L16.6556 8.00574L14.8931 10.9964L19.4793 18.4137L21.1375 17.4528C21.3001 17.3207 21.3985 17.1269 21.4089 16.9176L21.4086 16.8251Z" fill="#28A0F0"/>
<path d="M1.50008 18.1644L3.84173 19.5137L11.6341 7.0169L10.3116 6.98197C9.18479 6.96603 7.97099 7.25896 7.4138 8.16843L2.98871 15.0271L1.5 17.3144V18.1644H1.50008Z" fill="white"/>
<path d="M16.132 7.0177L12.6466 7.03036L4.76074 20.0434L7.51703 21.6304L8.2666 20.3591L16.132 7.0177Z" fill="white"/>
<path d="M22.8782 6.99901C22.8491 6.27007 22.4544 5.60273 21.8362 5.21424L13.171 0.231149C12.5594 -0.0768261 11.7954 -0.0771987 11.1829 0.230926C11.1105 0.267421 2.75613 5.11265 2.75613 5.11265C2.64054 5.16807 2.52919 5.23413 2.42439 5.30906C1.8725 5.70462 1.53607 6.31923 1.50151 6.99454V17.3146L2.99022 15.0272L2.97719 7.06433C2.97897 7.03521 2.98262 7.00661 2.98776 6.97831C3.02135 6.79091 3.126 6.62378 3.28352 6.51087C3.32285 6.48272 11.8198 1.56434 11.8469 1.55079C12.0466 1.45046 12.3004 1.44942 12.5004 1.54773L21.0534 6.4676C21.2558 6.59645 21.3826 6.81497 21.3939 7.05383V16.9179C21.3835 17.1271 21.3009 17.3209 21.1382 17.453L19.48 18.4139L18.6244 18.9097L15.5663 20.682L12.4649 22.4793C12.2979 22.5397 12.1026 22.5363 11.9369 22.4689L8.26759 20.3584L7.51802 21.6297L10.8156 23.5282C10.9246 23.5902 11.0218 23.6452 11.1015 23.69C11.225 23.7593 11.3091 23.8055 11.3388 23.8199C11.5732 23.9337 11.9103 24 12.2142 24C12.4928 24 12.7645 23.9488 13.0216 23.8481L22.0296 18.6313C22.5466 18.2308 22.8508 17.6267 22.8782 16.9722V6.99901Z" fill="#96BEDC"/>
</svg>
