<svg width="24" height="24" viewBox="0 0 24 24" fill="none" xmlns="http://www.w3.org/2000/svg">
<path d="M7.83 11L11.0574 7.76355C11.2522 7.56821 11.252 7.25201 11.0569 7.05694L10.3536 6.35355C10.1583 6.15829 9.84171 6.15829 9.64645 6.35355L4.35355 11.6464C4.15829 11.8417 4.15829 12.1583 4.35355 12.3536L9.64645 17.6464C9.84171 17.8417 10.1583 17.8417 10.3536 17.6464L11.0569 16.9431C11.252 16.748 11.2522 16.4318 11.0574 16.2364L7.83 13H19.5C19.7761 13 20 12.7761 20 12.5V11.5C20 11.2239 19.7761 11 19.5 11H7.83Z" fill="white"/>
</svg>
