<svg width="24" height="24" viewBox="0 0 24 24" fill="none" xmlns="http://www.w3.org/2000/svg">
<g clip-path="url(#clip0_2824_20409)">
<path d="M17.0056 4.4489C16.7012 4.16795 16.2268 4.18693 15.9458 4.4913C15.6649 4.79566 15.6838 5.27016 15.9882 5.55111L19.9954 9.25H9C5.27208 9.25 2.25 12.2721 2.25 16V18C2.25 18.4142 2.58579 18.75 3 18.75C3.41421 18.75 3.75 18.4142 3.75 18V16C3.75 13.1005 6.10051 10.75 9 10.75H19.4198L15.9473 14.4897C15.6655 14.7932 15.683 15.2677 15.9866 15.5496C16.2901 15.8315 16.7647 15.8139 17.0465 15.5103L22.0465 10.1257C22.1821 9.97965 22.254 9.78564 22.2464 9.58649C22.2387 9.38734 22.1521 9.19944 22.0056 9.06426L17.0056 4.4489Z" fill="white"/>
</g>
<defs>
<clipPath id="clip0_2824_20409">
<rect width="24" height="24" fill="white"/>
</clipPath>
</defs>
</svg>
