<svg width="24" height="24" viewBox="0 0 24 24" fill="none" xmlns="http://www.w3.org/2000/svg">
<path fill-rule="evenodd" clip-rule="evenodd" d="M12 24C18.6274 24 24 18.6274 24 12C24 5.37258 18.6274 0 12 0C5.37258 0 0 5.37258 0 12C0 18.6274 5.37258 24 12 24ZM12.9609 11.8923C12.9609 14.249 11.0668 16.1595 8.73052 16.1595C6.39421 16.1595 4.5 14.2486 4.5 11.8923C4.5 9.53605 6.39406 7.625 8.73052 7.625C11.067 7.625 12.9609 9.53561 12.9609 11.8923ZM17.6017 11.8923C17.6017 14.1106 16.6547 15.9097 15.4865 15.9097C14.3182 15.9097 13.3712 14.1106 13.3712 11.8923C13.3712 9.67399 14.3181 7.87497 15.4863 7.87497C16.6546 7.87497 17.6017 9.67342 17.6017 11.8923ZM19.5 11.8923C19.5 13.8794 19.167 15.4912 18.7561 15.4912C18.3451 15.4912 18.0123 13.8798 18.0123 11.8923C18.0123 9.9048 18.3453 8.2934 18.7561 8.2934C19.1668 8.2934 19.5 9.90465 19.5 11.8923Z" fill="white" fill-opacity="0.3"/>
</svg>
