<svg width="24" height="24" viewBox="0 0 24 24" fill="none" xmlns="http://www.w3.org/2000/svg">
<path fill-rule="evenodd" clip-rule="evenodd" d="M12 24C18.6274 24 24 18.6274 24 12C24 5.37258 18.6274 0 12 0C5.37258 0 0 5.37258 0 12C0 18.6274 5.37258 24 12 24ZM17.9739 10.0887C17.9739 14.1542 14.8778 18.8438 9.21885 18.8438C7.54596 18.8446 5.90804 18.3649 4.5 17.4615C4.744 17.4912 4.98955 17.5063 5.23535 17.5067C6.62136 17.5089 7.96777 17.0445 9.05772 16.1883C8.4157 16.1754 7.79373 15.9624 7.27861 15.579C6.76348 15.1956 6.38091 14.6609 6.18428 14.0496C6.64499 14.1388 7.12003 14.1207 7.57266 13.9969C6.87583 13.8566 6.24908 13.4794 5.79894 12.9293C5.34881 12.3791 5.10308 11.6901 5.10352 10.9793V10.9412C5.53123 11.178 6.00914 11.3095 6.49775 11.325C5.84691 10.8897 5.38625 10.2229 5.20939 9.46009C5.03254 8.69731 5.15275 7.89581 5.54561 7.21848C6.31856 8.16843 7.28252 8.94534 8.37499 9.49884C9.46746 10.0523 10.6641 10.3701 11.8872 10.4315C11.7346 9.77166 11.8037 9.07998 12.0837 8.46335C12.3636 7.84672 12.8389 7.33949 13.4361 7.02009C14.0332 6.70069 14.719 6.5869 15.3873 6.69631C16.0556 6.80573 16.6693 7.13226 17.1334 7.62541C17.8222 7.48916 18.4828 7.23663 19.0869 6.87863C18.8566 7.59095 18.3758 8.1956 17.7337 8.58049C18.3435 8.50964 18.9391 8.34666 19.5 8.09709C19.0872 8.71519 18.5674 9.25469 17.9651 9.69026C17.971 9.82209 17.9739 9.95686 17.9739 10.0887Z" fill="white" fill-opacity="0.3"/>
</svg>
