<svg width="24" height="24" viewBox="0 0 24 24" fill="none" xmlns="http://www.w3.org/2000/svg">
<path fill-rule="evenodd" clip-rule="evenodd" d="M12 2.14584C9.56906 2.14584 7.64581 4.19039 7.64581 6.65279V6.72918H5.86808L3.31945 4.18054C3.05096 3.91206 2.61566 3.91206 2.34718 4.18054C2.07869 4.44903 2.07869 4.88433 2.34718 5.15281L4.89581 7.70145V12.6875H2.83331C2.45362 12.6875 2.14581 12.9953 2.14581 13.375C2.14581 13.7547 2.45362 14.0625 2.83331 14.0625H4.90089C4.94068 14.9962 5.22545 16.5867 6.15318 18.0101C6.18448 18.0582 6.21649 18.106 6.24922 18.1535L3.72218 20.6805C3.45369 20.949 3.45369 21.3843 3.72218 21.6528C3.99066 21.9213 4.42596 21.9213 4.69445 21.6528L7.14749 19.1998C7.22438 19.2716 7.30366 19.342 7.38539 19.4108L7.39732 19.421C8.44416 20.297 9.87162 20.8913 11.7739 20.9349C11.8485 20.9366 11.9239 20.9375 12 20.9375C12.2755 20.9375 12.5411 20.9263 12.797 20.9046C13.7109 20.8273 14.5017 20.6173 15.1834 20.3122C15.731 20.0673 16.211 19.7598 16.6295 19.4071L16.641 19.3972C16.7152 19.3343 16.7873 19.2702 16.8574 19.2047L19.3055 21.6528C19.574 21.9213 20.0093 21.9213 20.2778 21.6528C20.5463 21.3843 20.5463 20.949 20.2778 20.6805L17.7563 18.159C17.7869 18.1146 17.8169 18.0699 17.8462 18.0251C18.7762 16.6029 19.0601 15.0095 19.0992 14.0625H21.1666C21.5463 14.0625 21.8541 13.7547 21.8541 13.375C21.8541 12.9953 21.5463 12.6875 21.1666 12.6875H19.1041V7.70145L21.6528 5.15281C21.9213 4.88433 21.9213 4.44903 21.6528 4.18054C21.3843 3.91206 20.949 3.91206 20.6805 4.18054L18.1319 6.72918H16.3541V6.65279C16.3541 4.19039 14.4309 2.14584 12 2.14584ZM14.9791 6.72918V6.65279C14.9791 4.89634 13.6191 3.52084 12 3.52084C10.3808 3.52084 9.02081 4.89634 9.02081 6.65279V6.72918H14.9791ZM6.27081 8.10418V13.8333C6.27081 14.5313 6.48058 15.9942 7.30512 17.2594C7.55966 17.6499 7.87519 18.0262 8.26859 18.3574L8.27975 18.3665C8.56448 18.6048 8.89244 18.8217 9.2712 19.0034C9.83642 19.2745 10.5095 19.4647 11.3125 19.5338V8.10418H6.27081ZM12.6875 8.10418V19.534C13.4489 19.469 14.0934 19.2961 14.6398 19.049C15.067 18.8558 15.4315 18.6185 15.7434 18.3556L15.754 18.3469C16.1374 18.0219 16.4458 17.6542 16.6954 17.2725C17.5189 16.0132 17.7291 14.5512 17.7291 13.8333V8.10418H12.6875Z" fill="white"/>
</svg>
