<svg width="24" height="24" viewBox="0 0 24 24" fill="none" xmlns="http://www.w3.org/2000/svg">
<path fill-rule="evenodd" clip-rule="evenodd" d="M22 12C22 6.47715 17.5228 2 12 2C6.47715 2 2 6.47715 2 12C2 17.5228 6.47715 22 12 22C17.5228 22 22 17.5228 22 12ZM8.01108 12.75C8.10225 15.824 8.74927 18.5112 9.70176 20.1857C6.35585 19.2482 3.84425 16.3144 3.53263 12.75H8.01108ZM9.51177 12.75C9.58455 15.0577 9.98896 17.0757 10.5643 18.514C10.8844 19.3142 11.228 19.8611 11.5329 20.1835C11.8326 20.5004 11.9908 20.5 11.9998 20.5C12.0089 20.5 12.1674 20.5004 12.4671 20.1835C12.772 19.8611 13.1156 19.3142 13.4357 18.514C14.011 17.0757 14.4155 15.0577 14.4882 12.75H9.51177ZM14.4882 11.25H9.51177C9.58455 8.94229 9.98896 6.92434 10.5643 5.48602C10.8844 4.68578 11.228 4.13885 11.5329 3.81651C11.827 3.50546 11.9852 3.50007 11.9995 3.5C12.0085 3.49998 12.1674 3.49961 12.4671 3.81651C12.772 4.13885 13.1156 4.68578 13.4357 5.48602C14.011 6.92434 14.4155 8.94229 14.4882 11.25ZM15.9889 12.75C15.8977 15.824 15.2507 18.5112 14.2982 20.1857C17.6442 19.2482 20.1558 16.3144 20.4674 12.75H15.9889ZM20.4674 11.25H15.9889C15.8977 8.17604 15.2507 5.48884 14.2982 3.81434C17.6442 4.75182 20.1558 7.68559 20.4674 11.25ZM8.01108 11.25H3.53263C3.84425 7.6856 6.35585 4.75182 9.70176 3.81435C8.74927 5.48884 8.10225 8.17604 8.01108 11.25Z" fill="white"/>
</svg>
