<svg width="24" height="24" viewBox="0 0 24 24" fill="none" xmlns="http://www.w3.org/2000/svg">
<path fill-rule="evenodd" clip-rule="evenodd" d="M12 8.25C9.92893 8.25 8.25 9.92893 8.25 12C8.25 14.0711 9.92893 15.75 12 15.75C14.0711 15.75 15.75 14.0711 15.75 12C15.75 9.92893 14.0711 8.25 12 8.25ZM9.75 12C9.75 10.7574 10.7574 9.75 12 9.75C13.2426 9.75 14.25 10.7574 14.25 12C14.25 13.2426 13.2426 14.25 12 14.25C10.7574 14.25 9.75 13.2426 9.75 12Z" fill="white"/>
<path fill-rule="evenodd" clip-rule="evenodd" d="M21.25 6.57104L12 1.12987L2.75 6.57104V17.429L12 22.8701L21.25 17.429V6.57104ZM4.25 16.571V7.42896L12 2.87014L19.75 7.42896V16.571L12 21.1299L4.25 16.571Z" fill="white"/>
</svg>
