<svg width="1000" height="103" viewBox="0 0 1000 103" fill="none" xmlns="http://www.w3.org/2000/svg">
<path d="M11.136 63.384C8.21333 63.384 5.92 62.4027 4.256 60.44C2.592 58.456 1.76 55.5867 1.76 51.832C1.76 49.9547 1.97333 48.3013 2.4 46.872C2.82667 45.4427 3.44533 44.2373 4.256 43.256C5.06667 42.2747 6.048 41.5387 7.2 41.048C8.37333 40.536 9.68533 40.28 11.136 40.28C13.0773 40.28 14.6987 40.7067 16 41.56C17.3227 42.4133 18.3573 43.672 19.104 45.336L16.064 47C15.68 45.9333 15.0827 45.0907 14.272 44.472C13.4827 43.832 12.4373 43.512 11.136 43.512C9.408 43.512 8.05333 44.0987 7.072 45.272C6.09067 46.4453 5.6 48.0667 5.6 50.136V53.528C5.6 55.5973 6.09067 57.2187 7.072 58.392C8.05333 59.5653 9.408 60.152 11.136 60.152C12.48 60.152 13.568 59.8107 14.4 59.128C15.2533 58.424 15.8827 57.528 16.288 56.44L19.2 58.2C18.4533 59.8213 17.408 61.0907 16.064 62.008C14.72 62.9253 13.0773 63.384 11.136 63.384ZM29.3053 63.384C28.1533 63.384 27.0973 63.1813 26.1373 62.776C25.1986 62.3707 24.3986 61.7947 23.7373 61.048C23.0759 60.28 22.5639 59.3627 22.2013 58.296C21.8386 57.208 21.6573 56.0027 21.6573 54.68C21.6573 53.3573 21.8386 52.1627 22.2013 51.096C22.5639 50.008 23.0759 49.0907 23.7373 48.344C24.3986 47.576 25.1986 46.9893 26.1373 46.584C27.0973 46.1787 28.1533 45.976 29.3053 45.976C30.4573 45.976 31.5026 46.1787 32.4413 46.584C33.4013 46.9893 34.2119 47.576 34.8733 48.344C35.5346 49.0907 36.0466 50.008 36.4093 51.096C36.7719 52.1627 36.9533 53.3573 36.9533 54.68C36.9533 56.0027 36.7719 57.208 36.4093 58.296C36.0466 59.3627 35.5346 60.28 34.8733 61.048C34.2119 61.7947 33.4013 62.3707 32.4413 62.776C31.5026 63.1813 30.4573 63.384 29.3053 63.384ZM29.3053 60.504C30.4999 60.504 31.4599 60.1413 32.1853 59.416C32.9106 58.6693 33.2733 57.56 33.2733 56.088V53.272C33.2733 51.8 32.9106 50.7013 32.1853 49.976C31.4599 49.2293 30.4999 48.856 29.3053 48.856C28.1106 48.856 27.1506 49.2293 26.4253 49.976C25.6999 50.7013 25.3373 51.8 25.3373 53.272V56.088C25.3373 57.56 25.6999 58.6693 26.4253 59.416C27.1506 60.1413 28.1106 60.504 29.3053 60.504ZM44.3918 63C43.1971 63 42.3011 62.7013 41.7038 62.104C41.1278 61.4853 40.8398 60.632 40.8398 59.544V39.32H44.3278V60.152H46.6318V63H44.3918ZM56.4928 63.384C55.3408 63.384 54.2848 63.1813 53.3248 62.776C52.3861 62.3707 51.5861 61.7947 50.9248 61.048C50.2634 60.28 49.7514 59.3627 49.3888 58.296C49.0261 57.208 48.8448 56.0027 48.8448 54.68C48.8448 53.3573 49.0261 52.1627 49.3888 51.096C49.7514 50.008 50.2634 49.0907 50.9248 48.344C51.5861 47.576 52.3861 46.9893 53.3248 46.584C54.2848 46.1787 55.3408 45.976 56.4928 45.976C57.6448 45.976 58.6901 46.1787 59.6288 46.584C60.5888 46.9893 61.3994 47.576 62.0608 48.344C62.7221 49.0907 63.2341 50.008 63.5968 51.096C63.9594 52.1627 64.1408 53.3573 64.1408 54.68C64.1408 56.0027 63.9594 57.208 63.5968 58.296C63.2341 59.3627 62.7221 60.28 62.0608 61.048C61.3994 61.7947 60.5888 62.3707 59.6288 62.776C58.6901 63.1813 57.6448 63.384 56.4928 63.384ZM56.4928 60.504C57.6874 60.504 58.6474 60.1413 59.3728 59.416C60.0981 58.6693 60.4608 57.56 60.4608 56.088V53.272C60.4608 51.8 60.0981 50.7013 59.3728 49.976C58.6474 49.2293 57.6874 48.856 56.4928 48.856C55.2981 48.856 54.3381 49.2293 53.6128 49.976C52.8874 50.7013 52.5248 51.8 52.5248 53.272V56.088C52.5248 57.56 52.8874 58.6693 53.6128 59.416C54.3381 60.1413 55.2981 60.504 56.4928 60.504ZM68.0273 63V46.36H71.5153V49.56H71.6753C71.9099 48.7067 72.4006 47.96 73.1473 47.32C73.8939 46.68 74.9286 46.36 76.2513 46.36H77.1793V49.72H75.8033C74.4166 49.72 73.3499 49.944 72.6033 50.392C71.8779 50.84 71.5153 51.5013 71.5153 52.376V63H68.0273ZM91.6798 52.12V54.328H111.776V52.12H91.6798ZM100.384 44.952V53.24H102.784V44.952H100.384ZM91.5838 44.088V46.264H110.976V55.736H113.408V44.088H91.5838ZM90.3678 44.088V60.472C90.3678 64.312 91.9358 65.24 97.1198 65.24C98.3038 65.24 108.352 65.24 109.632 65.24C114.4 65.24 115.392 63.832 115.936 59.096C115.2 58.968 114.176 58.616 113.568 58.2C113.184 62.136 112.672 62.968 109.568 62.968C107.424 62.968 98.6558 62.968 96.9598 62.968C93.4398 62.968 92.7678 62.52 92.7678 60.472V44.088H90.3678ZM95.7118 38.264L94.6238 40.408H105.76V38.264H95.7118ZM95.7758 36.024C94.0478 39.256 90.8158 43.224 86.4638 46.168C87.0398 46.552 87.8398 47.352 88.2238 47.928C92.8318 44.568 96.1598 40.344 98.4318 36.536L95.7758 36.024ZM104.704 38.264V38.744C103.968 40.536 102.432 43.064 101.056 44.6C101.504 44.952 102.24 45.656 102.592 46.136C104.224 44.408 106.112 41.656 107.36 39.192L105.728 38.136L105.248 38.264H104.704ZM119.136 50.808V53.016H135.552V50.808H119.136ZM126.624 47.448V65.528H128.96V47.448H126.624ZM126.56 51.736C124.832 55.288 121.344 59.224 118.208 61.176C118.72 61.72 119.36 62.616 119.68 63.288C122.912 60.92 126.528 56.664 128.416 52.856L126.56 51.736ZM134.112 36.504C130.528 37.624 124.192 38.392 118.912 38.84C119.2 39.384 119.52 40.28 119.584 40.824C124.928 40.472 131.424 39.704 135.616 38.52L134.112 36.504ZM119.84 42.968C121.024 44.536 122.208 46.712 122.656 48.12L124.576 47.224C124.096 45.784 122.912 43.704 121.664 42.168L119.84 42.968ZM125.536 41.848C126.464 43.448 127.328 45.56 127.616 46.968L129.632 46.264C129.312 44.888 128.384 42.808 127.424 41.272L125.536 41.848ZM133.216 41.144C132.576 43.032 131.328 45.752 130.336 47.448L132.16 48.088C133.184 46.488 134.528 43.96 135.552 41.848L133.216 41.144ZM144.384 36.696C142.56 39.16 139.136 41.752 136.288 43.224C136.928 43.704 137.632 44.472 138.08 45.016C141.12 43.256 144.544 40.504 146.752 37.656L144.384 36.696ZM145.28 45.496C143.264 48.088 139.552 50.776 136.48 52.344C137.12 52.792 137.824 53.592 138.24 54.136C141.536 52.312 145.216 49.432 147.584 46.456L145.28 45.496ZM146.016 54.52C143.744 58.36 139.328 61.72 134.688 63.544C135.328 64.088 136 64.952 136.384 65.56C141.28 63.384 145.728 59.768 148.384 55.448L146.016 54.52ZM127.744 54.232C129.952 55.992 132.384 58.584 133.568 60.28L135.2 58.712C134.048 57.048 131.552 54.584 129.248 52.856L127.744 54.232Z" fill="white"/>
<rect y="102" width="1000" height="1" fill="white" fill-opacity="0.12"/>
</svg>
